/* XPM */
static char *back_2[] = {
/* columns rows colors chars-per-pixel */
"40 40 58 1 ",
"  c black",
". c #010000",
"X c #000100",
"o c #010100",
"O c #010101",
"+ c #030000",
"@ c #020100",
"# c #020001",
"$ c #000200",
"% c #000201",
"& c #000002",
"* c #010002",
"= c #010103",
"- c #040000",
"; c #000004",
": c #9D642F",
"> c #9B6330",
", c #9B6332",
"< c #996430",
"1 c #9C6431",
"2 c #9C6433",
"3 c #008300",
"4 c #018300",
"5 c #018201",
"6 c #008301",
"7 c #028302",
"8 c #008400",
"9 c #018400",
"0 c #008500",
"q c #018500",
"w c #008401",
"e c #008501",
"r c #028400",
"t c #008600",
"y c #018402",
"u c #008502",
"i c #008602",
"p c #01C500",
"a c #00C600",
"s c #00C601",
"d c #00C702",
"f c #00C800",
"g c #FEFF42",
"h c #FFFF42",
"j c #FFFF43",
"k c #FEFE44",
"l c #000001",
"z c #A5A5A5",
"x c #FFBD8B",
"c c #FDBE8B",
"v c #FFBB8C",
"b c #FDBD8D",
"n c #FFBD8C",
"m c #FFBC8D",
"M c #FFBD8D",
"N c #FFBD90",
"B c #FFFEFF",
"V c white",
/* pixels */
"llllllllllllllllllllllllllllllllllllllll",
"llllllllllllllllllllllllllllllllllllllll",
"llllllllllllllllllllllllllllllllllllllll",
"llllllllllllllllllllllllllllllllllllllll",
"llllllllllllllllXXOO--llll==&&  llllllll",
"llllllllllllllllXXOO--llll==&&  llllllll",
"llllllllllllllOO    &&    ..VV  llllllll",
"llllllllllllllOO    &&    ..VV  llllllll",
"llllllllllll  hhgghhgg..VVBBBB  llllllll",
"llllllllllll  hhgghhgg..VVBBBB  llllllll",
"llllllll    jj++XX..@@kk**$$VV  llllllll",
"llllllll    jj++XX..@@kk**$$VV  llllllll",
"llllll  nn&&  99ppss00  &&xx    llllllll",
"llllll  nn&&  99ppss00  &&xx    llllllll",
"llllllXXcc  99uuddpp8844XXNN    llllllll",
"llllllXXcc  99uuddpp8844XXNN    llllllll",
"llllllXXbbOO6600ddeeoo99..MM  OOllllllll",
"llllllXXbbOO6600ddeeoo99..MM  OOllllllll",
"llllll&&::..tt55ff33rr    <<&&  llllllll",
"llllll&&::..tt55ff33rr    <<&&  llllllll",
"llllllOO  ##  rr33uu99XXOO..zz  llllllll",
"llllllOO  ##  rr33uu99XXOO..zz  llllllll",
"llllll&&11;;77  uu44uu&&22oo  llllllllll",
"llllll&&11;;77  uu44uu&&22oo  llllllllll",
"llllll  >>  8800  9933==>>vvOOllllllllll",
"llllll  >>  8800  9933==>>vvOOllllllllll",
"llllll..&&uuaa99yy  &&44XXmmXXllllllllll",
"llllll..&&uuaa99yy  &&44XXmmXXllllllllll",
"llllllll  ww33aaaassaassqq..llllllllllll",
"llllllll  ww33aaaassaassqq..llllllllllll",
"llllllll&&..**55ii88wwrr%%  llllllllllll",
"llllllll&&..**55ii88wwrr%%  llllllllllll",
"llllllOO**,,>>      ;;  ..XXllllllllllll",
"llllllOO**,,>>      ;;  ..XXllllllllllll",
"llllllllOO      ..  ..OOXXllllllllllllll",
"llllllllOO      ..  ..OOXXllllllllllllll",
"llllllllllllllllllllllllllllllllllllllll",
"llllllllllllllllllllllllllllllllllllllll",
"llllllllllllllllllllllllllllllllllllllll",
"llllllllllllllllllllllllllllllllllllllll"
};
