/* XPM */
static char *back_s1[] = {
/* columns rows colors chars-per-pixel */
"40 40 89 1 ",
"  c black",
". c #010000",
"X c #000100",
"o c #010100",
"O c #010101",
"+ c #030000",
"@ c #020100",
"# c #020001",
"$ c #000200",
"% c #000201",
"& c #000002",
"* c #010002",
"= c #010103",
"- c #040000",
"; c #000004",
": c #231F1E",
"> c #1F201B",
", c #1F211E",
"< c #1E201F",
"1 c #20201E",
"2 c #21201E",
"3 c #21211F",
"4 c #1F1F21",
"5 c #1F2022",
"6 c #202020",
"7 c gray13",
"8 c #222021",
"9 c #202022",
"0 c #202123",
"q c #212123",
"w c #9C0001",
"e c #A62021",
"r c #A82020",
"t c #A82022",
"y c #FD0000",
"u c #9D642F",
"i c #9B6330",
"p c #9B6332",
"a c #996430",
"s c #9C6431",
"d c #9C6433",
"f c #008300",
"g c #018300",
"h c #018201",
"j c #008301",
"k c #028302",
"l c #008400",
"z c #018400",
"x c #008500",
"c c #018500",
"v c #008401",
"b c #008501",
"n c #028400",
"m c #008600",
"M c #018402",
"N c #008502",
"B c #008602",
"V c #01C500",
"C c #00C600",
"Z c #00C601",
"A c #00C702",
"S c #00C800",
"D c #FEFF42",
"F c #FFFF42",
"G c #FFFF43",
"H c #FEFE44",
"J c #000001",
"K c #A5A5A5",
"L c #FFBD8B",
"P c #FDBE8B",
"I c #FFBB8C",
"U c #FDBD8D",
"Y c #FFBD8C",
"T c #FFBC8D",
"R c #FFBD8D",
"E c #FFBD90",
"W c #8583FF",
"Q c #8284FD",
"! c #8484FE",
"~ c #8484FF",
"^ c #9394FE",
"/ c #DDDEFC",
"( c #DEDFFD",
") c #DCDEFF",
"_ c #DEDEFF",
"` c #E1DDFE",
"' c #E2E3FF",
"] c #FFFEFF",
"[ c white",
/* pixels */
"JJJJJJJJ::22JJJJJJJJJJJJJJJJJJJJJJJJJJJJ",
"JJJJJJJJ::22JJJJJJJJJJJJJJJJJJJJJJJJJJJJ",
"JJJJJJ11''^^00JJJJJJJJJJJJJJJJJJJJJJJJJJ",
"JJJJJJ11''^^00JJJJJJJJJJJJJJJJJJJJJJJJJJ",
"JJJJJJ<<__~~88JJJJJJJJJJJJJJJJJJJJJJJJJJ",
"JJJJJJ<<__~~88JJJJJJJJJJJJJJJJJJJJJJJJJJ",
"JJJJJJ11//!!11JJJJJJJJJJJJJJJJJJJJJJJJJJ",
"JJJJJJ11//!!11JJJJJJJJJJJJJJJJJJJJJJJJJJ",
"JJJJJJ66))~~,,JJJJJJXXOO--JJJJ==&&  JJJJ",
"JJJJJJ66))~~,,JJJJJJXXOO--JJJJ==&&  JJJJ",
"JJJJJJ<<((WW99JJJJOO    &&    ..[[  JJJJ",
"JJJJJJ<<((WW99JJJJOO    &&    ..[[  JJJJ",
"JJJJJJqq__QQ11JJ  FFDDFFDD..[[]]]]  JJJJ",
"JJJJJJqq__QQ11JJ  FFDDFFDD..[[]]]]  JJJJ",
"JJJJJJ66``~~    GG++XX..@@HH**$$[[  JJJJ",
"JJJJJJ66``~~    GG++XX..@@HH**$$[[  JJJJ",
"JJJJJJ66__  YY&&  zzVVZZxx  &&LL    JJJJ",
"JJJJJJ66__  YY&&  zzVVZZxx  &&LL    JJJJ",
"JJJJ1144WWXXPP  zzNNAAVVllggXXEE    JJJJ",
"JJJJ1144WWXXPP  zzNNAAVVllggXXEE    JJJJ",
"JJ**tt==..XXUUOOjjxxAAbboozz..RR  OOJJJJ",
"JJ**tt==..XXUUOOjjxxAAbboozz..RR  OOJJJJ",
"JJJJ>>rryy&&uu..mmhhSSffnn    aa&&  JJJJ",
"JJJJ>>rryy&&uu..mmhhSSffnn    aa&&  JJJJ",
"JJJJJJ77  OO  ##  nnffNNzzXXOO..KK  JJJJ",
"JJJJJJ77  OO  ##  nnffNNzzXXOO..KK  JJJJ",
"JJJJJJ11ww&&ss;;kk  NNggNN&&ddoo  JJJJJJ",
"JJJJJJ11ww&&ss;;kk  NNggNN&&ddoo  JJJJJJ",
"JJJJJJ55ee  ii  llxx  zzff==iiIIOOJJJJJJ",
"JJJJJJ55ee  ii  llxx  zzff==iiIIOOJJJJJJ",
"JJJJJJJJ33..&&NNCCzzMM  &&ggXXTTXXJJJJJJ",
"JJJJJJJJ33..&&NNCCzzMM  &&ggXXTTXXJJJJJJ",
"JJJJJJJJJJJJ  vvffCCCCZZCCZZcc..JJJJJJJJ",
"JJJJJJJJJJJJ  vvffCCCCZZCCZZcc..JJJJJJJJ",
"JJJJJJJJJJJJ&&..**hhBBllvvnn%%  JJJJJJJJ",
"JJJJJJJJJJJJ&&..**hhBBllvvnn%%  JJJJJJJJ",
"JJJJJJJJJJOO**ppii      ;;  ..XXJJJJJJJJ",
"JJJJJJJJJJOO**ppii      ;;  ..XXJJJJJJJJ",
"JJJJJJJJJJJJOO      ..  ..OOXXJJJJJJJJJJ",
"JJJJJJJJJJJJOO      ..  ..OOXXJJJJJJJJJJ"
};
