/* XPM */
static char *back_s2[] = {
/* columns rows colors chars-per-pixel */
"40 40 98 2 ",
"   c black",
".  c #010000",
"X  c #000100",
"o  c #010100",
"O  c #010101",
"+  c #030000",
"@  c #020100",
"#  c #020001",
"$  c #000200",
"%  c #000002",
"&  c #010002",
"*  c #000102",
"=  c #000103",
"-  c #020003",
";  c #000004",
":  c #010004",
">  c gray12",
",  c #1E201F",
"<  c #20201E",
"1  c #21201E",
"2  c #211F20",
"3  c #211F22",
"4  c #201F24",
"5  c #1D2120",
"6  c #1F2120",
"7  c #1F2022",
"8  c #1F2024",
"9  c #202020",
"0  c gray13",
"q  c #202022",
"w  c #212123",
"e  c #9E0001",
"r  c #A6201F",
"t  c #A8211E",
"y  c #AA1F22",
"u  c #FE0000",
"i  c #FE0002",
"p  c #9C632E",
"a  c #9D642F",
"s  c #9B6332",
"d  c #9D6331",
"f  c #996432",
"g  c #9C6431",
"h  c #9C6234",
"j  c #A06231",
"k  c #008300",
"l  c #018300",
"z  c #018201",
"x  c #008301",
"c  c #008303",
"v  c #028302",
"b  c #048302",
"n  c #008400",
"m  c #018400",
"M  c #008500",
"N  c #008401",
"B  c #028400",
"V  c #008600",
"C  c #018402",
"Z  c #048204",
"A  c #008404",
"S  c #01C501",
"D  c #00C600",
"F  c #01C600",
"G  c #01C700",
"H  c #00C601",
"J  c #00C503",
"K  c #FFFF40",
"L  c #FFFE41",
"P  c #FFFD42",
"I  c #FEFF42",
"U  c #FFFF42",
"Y  c #FFFF43",
"T  c #000001",
"R  c #A6A5A3",
"E  c #FFBB8A",
"W  c #FEBC88",
"Q  c #FDBE89",
"!  c #FFBC8B",
"~  c #FDBE8B",
"^  c #FFBE8C",
"/  c #8284FB",
"(  c #8385FC",
")  c #8385FE",
"_  c #8484FF",
"`  c #9295FF",
"'  c #DBDEFD",
"]  c #DFDEFD",
"[  c #DCDFFF",
"{  c #DEDFFE",
"}  c #DEDEFF",
"|  c #E1DBFF",
" . c #E1DDFF",
".. c #E3E3FF",
"X. c #FDFFFE",
"o. c #FFFEFF",
"O. c #FEFFFF",
"+. c white",
/* pixels */
"T T T T T T 8 8 0 0 T T T T T T T T T T T T T T T T T T T T T T T T T T T T T T ",
"T T T T T T 8 8 0 0 T T T T T T T T T T T T T T T T T T T T T T T T T T T T T T ",
"T T T T 9 9 ....` ` 9 9 T T T T T T T T T T T T T T T T T T T T T T T T T T T T ",
"T T T T 9 9 ....` ` 9 9 T T T T T T T T T T T T T T T T T T T T T T T T T T T T ",
"T T T T , , [ [ ( ( 1 1 T T T T T T T T T T T T T T T T T T T T T T T T T T T T ",
"T T T T , , [ [ ( ( 1 1 T T T T T T T T T T T T T T T T T T T T T T T T T T T T ",
"T T T T 6 6 | | / / w w T T T T o o     % %     T T T T     % % + + T T T T T T ",
"T T T T 6 6 | | / / w w T T T T o o     % %     T T T T     % % + + T T T T T T ",
"T T T T > > } } _ _ > > T T $ $ X X . . . . = =     @ @ X X +.+.    T T T T T T ",
"T T T T > > } } _ _ > > T T $ $ X X . . . . = =     @ @ X X +.+.    T T T T T T ",
"T T T T 2 2 { { _ _ 2 2 T T     U U P P K K I I . . O.O.X.X.O.O.X X T T T T T T ",
"T T T T 2 2 { { _ _ 2 2 T T     U U P P K K I I . . O.O.X.X.O.O.X X T T T T T T ",
"T T T T 9 9 ' ' _ _ X X & & L L * * % %     % % Y Y     o o o.o.. . T T T T T T ",
"T T T T 9 9 ' ' _ _ X X & & L L * * % %     % % Y Y     o o o.o.. . T T T T T T ",
"T T T T 6 6  . .o o E E @ @ & & k k D D S S k k . . X X ~ ~ . .     T T T T T T ",
"T T T T 6 6  . .o o E E @ @ & & k k D D S S k k . . X X ~ ~ . .     T T T T T T ",
"T T T T 1 1 ] ] % % ^ ^ & & c c V V H H H H n n B B & & ! ! = = X X T T T T T T ",
"T T T T 1 1 ] ] % % ^ ^ & & c c V V H H H H n n B B & & ! ! = = X X T T T T T T ",
"T T 6 6 < < ) ) : : Q Q X X Z Z . . m m S S m m x x % % W W     O O T T T T T T ",
"T T 6 6 < < ) ) : : Q Q X X Z Z . . m m S S m m x x % % W W     O O T T T T T T ",
"4 4 r r     % % . . a a % % X X m m k k D D N N k k . . g g     ; ; T T T T T T ",
"4 4 r r     % % . . a a % % X X m m k k D D N N k k . . g g     ; ; T T T T T T ",
"T T 1 1 t t u u i i % % % %     n n C C n n N N = = X X . . R R . . T T T T T T ",
"T T 1 1 t t u u i i % % % %     n n C C n n N N = = X X . . R R . . T T T T T T ",
"T T T T q q @ @         j j     M M x x z z     l l . . p p ; ; T T T T T T T T ",
"T T T T q q @ @         j j     M M x x z z     l l . . p p ; ; T T T T T T T T ",
"T T T T 7 7 e e % % ^ ^ f f     k k v v X X N N z z     h h O O T T T T T T T T ",
"T T T T 7 7 e e % % ^ ^ f f     k k v v X X N N z z     h h O O T T T T T T T T ",
"T T T T 9 9 y y $ $ ~ ~ . . B B . . X X N N l l J J n n     X X T T T T T T T T ",
"T T T T 9 9 y y $ $ ~ ~ . . B B . . X X N N l l J J n n     X X T T T T T T T T ",
"T T T T T T 5 5 3 3 X X b b H H D D G G F F S S k k M M % % T T T T T T T T T T ",
"T T T T T T 5 5 3 3 X X b b H H D D G G F F S S k k M M % % T T T T T T T T T T ",
"T T T T T T T T T T     X X m m k k M M A A k k - -     . . T T T T T T T T T T ",
"T T T T T T T T T T     X X m m k k M M A A k k - -     . . T T T T T T T T T T ",
"T T T T T T T T T T     . . ; ; % % * *     X X s s d d X X # # T T T T T T T T ",
"T T T T T T T T T T     . . ; ; % % * *     X X s s d d X X # # T T T T T T T T ",
"T T T T T T T T T T T T         % %     & &             X X T T T T T T T T T T ",
"T T T T T T T T T T T T         % %     & &             X X T T T T T T T T T T ",
"T T T T T T T T T T T T T T T T T T T T T T T T T T T T T T T T T T T T T T T T ",
"T T T T T T T T T T T T T T T T T T T T T T T T T T T T T T T T T T T T T T T T "
};
