/* XPM */
static char *back_1[] = {
/* columns rows colors chars-per-pixel */
"40 40 65 1 ",
"  c black",
". c #010000",
"X c #000100",
"o c #010100",
"O c #010101",
"+ c #030000",
"@ c #020100",
"# c #020001",
"$ c #000200",
"% c #000002",
"& c #010002",
"* c #000102",
"= c #000103",
"- c #020003",
"; c #000004",
": c #010004",
"> c #211F22",
", c #9C632E",
"< c #9D642F",
"1 c #9B6332",
"2 c #9D6331",
"3 c #996432",
"4 c #9C6431",
"5 c #9C6234",
"6 c #A06231",
"7 c #008300",
"8 c #018300",
"9 c #018201",
"0 c #008301",
"q c #008303",
"w c #028302",
"e c #048302",
"r c #008400",
"t c #018400",
"y c #008500",
"u c #008401",
"i c #028400",
"p c #008600",
"a c #018402",
"s c #048204",
"d c #008404",
"f c #01C501",
"g c #00C600",
"h c #01C600",
"j c #01C700",
"k c #00C601",
"l c #00C503",
"z c #FFFF40",
"x c #FFFE41",
"c c #FFFD42",
"v c #FEFF42",
"b c #FFFF42",
"n c #FFFF43",
"m c #000001",
"M c #A6A5A3",
"N c #FFBB8A",
"B c #FEBC88",
"V c #FDBE89",
"C c #FFBC8B",
"Z c #FDBE8B",
"A c #FFBE8C",
"S c #FDFFFE",
"D c #FFFEFF",
"F c #FEFFFF",
"G c white",
/* pixels */
"mmmmmmmmmmmmmmmmmmmmmmmmmmmmmmmmmmmmmmmm",
"mmmmmmmmmmmmmmmmmmmmmmmmmmmmmmmmmmmmmmmm",
"mmmmmmmmmmmmmmmmmmmmmmmmmmmmmmmmmmmmmmmm",
"mmmmmmmmmmmmmmmmmmmmmmmmmmmmmmmmmmmmmmmm",
"mmmmmmmmmmmmmmmmmmmmmmmmmmmmmmmmmmmmmmmm",
"mmmmmmmmmmmmmmmoo  %%  mmmm  %%++mmmmmmm",
"mmmmmmmmmmmmmmmoo  %%  mmmm  %%++mmmmmmm",
"mmmmmmmmmmmmm$$XX....==  @@XXGG  mmmmmmm",
"mmmmmmmmmmmmm$$XX....==  @@XXGG  mmmmmmm",
"mmmmmmmmmmmmm  bbcczzvv..FFSSFFXXmmmmmmm",
"mmmmmmmmmmmmm  bbcczzvv..FFSSFFXXmmmmmmm",
"mmmmmmmmmXX&&xx**%%  %%nn  ooDD..mmmmmmm",
"mmmmmmmmmXX&&xx**%%  %%nn  ooDD..mmmmmmm",
"mmmmmmmooNN@@&&77ggff77..XXZZ..  mmmmmmm",
"mmmmmmmooNN@@&&77ggff77..XXZZ..  mmmmmmm",
"mmmmmmm%%AA&&qqppkkkkrrii&&CC==XXmmmmmmm",
"mmmmmmm%%AA&&qqppkkkkrrii&&CC==XXmmmmmmm",
"mmmmmmm::VVXXss..ttfftt00%%BB  OOmmmmmmm",
"mmmmmmm::VVXXss..ttfftt00%%BB  OOmmmmmmm",
"mmmmmmm..<<%%XXtt77gguu77..44  ;;mmmmmmm",
"mmmmmmm..<<%%XXtt77gguu77..44  ;;mmmmmmm",
"mmmmmmmmm%%%%  rraarruu==XX..MM..mmmmmmm",
"mmmmmmmmm%%%%  rraarruu==XX..MM..mmmmmmm",
"mmmmmmm    66  yy0099  88..,,;;mmmmmmmmm",
"mmmmmmm    66  yy0099  88..,,;;mmmmmmmmm",
"mmmmmmm%%AA33  77wwXXuu99  55OOmmmmmmmmm",
"mmmmmmm%%AA33  77wwXXuu99  55OOmmmmmmmmm",
"mmmmmmm$$ZZ..ii..XXuu88llrr  XXmmmmmmmmm",
"mmmmmmm$$ZZ..ii..XXuu88llrr  XXmmmmmmmmm",
"mmmmmmm>>XXeekkggjjhhff77yy%%mmmmmmmmmmm",
"mmmmmmm>>XXeekkggjjhhff77yy%%mmmmmmmmmmm",
"mmmmmmmmm  XXtt77yydd77--  ..mmmmmmmmmmm",
"mmmmmmmmm  XXtt77yydd77--  ..mmmmmmmmmmm",
"mmmmmmmmm  ..;;%%**  XX1122XX##mmmmmmmmm",
"mmmmmmmmm  ..;;%%**  XX1122XX##mmmmmmmmm",
"mmmmmmmmmmm    %%  &&      XXmmmmmmmmmmm",
"mmmmmmmmmmm    %%  &&      XXmmmmmmmmmmm",
"mmmmmmmmmmmmmmmmmmmmmmmmmmmmmmmmmmmmmmmm",
"mmmmmmmmmmmmmmmmmmmmmmmmmmmmmmmmmmmmmmmm",
"mmmmmmmmmmmmmmmmmmmmmmmmmmmmmmmmmmmmmmmm"
};
