/* XPM */
static char *enemy[] = {
/* columns rows colors chars-per-pixel */
"50 50 13 1 ",
"  c black",
". c gray8",
"X c gray16",
"o c #5A3114",
"O c #B26128",
"+ c #B56329",
"@ c #BB4149",
"# c #BD424A",
"$ c #DEBD18",
"% c #F7A56B",
"& c #000001",
"* c #F77B84",
"= c white",
/* pixels */
"&&&&&&&&&&&&&&&&&&&&&&&&    &&&&&&&&&&&&&&&&&&&&&&",
"&&&&&&&&&&&&&&&&&&&&&&&&    &&&&&&&&&&&&&&&&&&&&&&",
"&&&&&&&&&&&&&&&&&&&&&&& ==== &&&&&&&&&&&&&&&&&&&&&",
"&&&&&&&&&&&&&&&&&&&&            &&&&&&&&&&&&&&&&&&",
"&&&&&&&&&&&&&&&&&&&&            &&&&&&&&&&&&&&&&&&",
"&&&&&&&&&&&&&&&&&&XX+++ $$$$ +++XX&&&&&&&&&&&&&&&&",
"&&&&&&&&&&&&&&&&&&XX+++ $$$$ +++XX&&&&&&&&&&&&&&&&",
"&&&&&&&&&&&&&&&&&X+++%% $$$$ ==+++X&&&&&&&&&&&&&&&",
"&&&&&&&&&&&&&&&XXX+++%%%    ====++XXX&&&&&&&&&&&&&",
"&&&&&&&&&&&&&&&XXX+++%%%    ====++XXX&&&&&&&&&&&&&",
"&&&&&&&&&&&&&  %%X++++++%%%%%==%++X%%  &&&&&&&&&&&",
"&&&&&&&&&&&&&  %%X++++++%%%%%==%++X%%  &&&&&&&&&&&",
"&&&&&&&&&&&&&  ++%++++++    %%%%++%++  &&&&&&&&&&&",
"&&&&&&&&&&&&&  ++++++++X====X++++++++  &&&&&&&&&&&",
"&&&&&&&&&&&&&  ++++++++X====X++++++++  &&&&&&&&&&&",
"&&&&&&&&&&&&&    +%%+++======++%+++    &&&&&&&&&&&",
"&&&&&&&&&&&&&    +%%+++======++%+++    &&&&&&&&&&&",
"&&&&&&&&&&        %%%++=    =%%%%%        &&&&&&&&",
"&&&&&&&&&X+++  ## ++=%%+    %%%=++ ##  +++X&&&&&&&",
"&&&&&&&&&X+++  ## ++=%%+    %%%=++ ##  +++X&&&&&&&",
"&&&&&&&  +%%%++  *  ===+++%%%===XX*  ++%%%+XX&&&&&",
"&&&&&&&  +%%%++  *  ===+++%%%===XX*  ++%%%+XX&&&&&",
"&&&&&& ++%%%+++  #**   ++++++   **#  +++%%%++X&&&&",
"&&&&&& ++%+++++++ **#          #** +++++++%++X&&&&",
"&&&&&& ++%+++++++ **#          #** +++++++%++X&&&&",
"&&&&&& ++++++%%++ ###**      **### ++%%++++++X&&&&",
"&&&&&& ++++++%%++ ###**      **### ++%%++++++X&&&&",
"&&&&  +  %%%+++  #**###*####*###**#  +++%%%XX+  &&",
"&&&&  +%%%++      ################      ++%%%+  &&",
"&&&&  +%%%++      ################      ++%%%+  &&",
"&&&&  +%%+%%+  &&    ##########    &&  +%%+%%+  &&",
"&&&&  +%%+%%+  &&    ##########    &&  +%%+%%+  &&",
"&&&&  +%%+++ &&&& $$            $$   && +++%%+  &&",
"&&&&&& +++  +        $$$$$$$$$$    ++  +  +++ &&&&",
"&&&&&& +++  +        $$$$$$$$$$    ++  +  +++ &&&&",
"&&&&&& %%+++     +  #          #  +++   +++%% &&&&",
"&&&&&& %%+++     +  #          #  +++   +++%% &&&&",
"&&&&&&&  %+++  +++   ## **** ###  +++  +++%XX&&&&&",
"&&&&&&&&&      +++++ ##******##   +        &&&&&&&",
"&&&&&&&&&      +++++ ##******##   +        &&&&&&&",
"&&&&&&&&&&&&&  ++++++  ######   ++     &&&&&&&&&&&",
"&&&&&&&&&&&&&  OOOOOO  @#####   ++     &&&&&&&&&&&",
"&&&&&&&&&&&&&  ..+++o...       +++%++  &&&&&&&&&&&",
"&&&&&&&&&&&&& .+++++.oo.               &&&&&&&&&&&",
"&&&&&&&&&&&&& .++++++oo.               &&&&&&&&&&&",
"&&&&&&&&&&&&& ++++ooooo.           &&&&&&&&&&&&&&&",
"&&&&&&&&&&&&& ++++ooooo.           &&&&&&&&&&&&&&&",
"&&&&&&&&&&&&&....++.ooo.          &&&&&&&&&&&&&&&&",
"&&&&&&&&&&&&&&&        .       &&&&&&&&&&&&&&&&&&&",
"&&&&&&&&&&&&&&&.       .       &&&&&&&&&&&&&&&&&&&"
};
