/* XPM */
static char *floor[] = {
/* columns rows colors chars-per-pixel */
"50 50 3 1 ",
"  c #29973B",
". c #3ABE41",
"X c #6ADD4B",
/* pixels */
"..................................................",
"..................................................",
"..............X..........................X........",
".X..........X.XX.X.......................X........",
"XX....X.....XXXXXX....X........X..X...... .....X..",
"X ..X.XX.X.. X XX ..X.XX.X.....X.X ............X.X",
" ...XXXXXX...    ...XXXXXX.....X.X.............X.X",
".... XX X .......... XX X ..... . ............. . ",
".....    ............    .........................",
"..................................................",
".X.......X...X...X.......X...X...............X....",
".XX.X...X .....X.XX.X...X ........................",
"XXXXX.X.X......XXXXXX.X.X..........X..X...........",
"X XX ... ...... X XX ... .......... X.X...........",
"    ............    ................X.X...........",
".................................... . ...........",
"..................................................",
"..................................................",
"..............X..........................X........",
"............X.XX.X.......................X........",
"............XXXXXX....X........X..X...... ........",
"............ X XX ..X.XX.X.....X.X ..........X....",
".............    ...XXXXXX.....X.X..........X ....",
".................... XX X ..... . ..........X.....",
"...X.................    ................... .....",
".X.X..............................................",
".X. .....X...X...X.......X...X...................X",
". .............X.XX.X...X .....................X.X",
"...............XXXXXX.X.X..........X..X........XXX",
"............... X XX ... .......... X.X........ X ",
"................    ................X.X.........  ",
".................................... . ...........",
"..................................................",
"..................................................",
"........X................X...X................X...",
".X......X................X...X..............X.XX.X",
"XX...... ......X..X...... ... ..............XXXXXX",
"X ..X..........X.X ......................... XX X ",
" ..............X.X...........................    .",
"............... . ................................",
".....X.............................X..............",
"....X ...........................X.X..............",
"..X.X........X...................X. .....X........",
".. . ............................ ................",
".......X...........X..X...........................",
"................... X.X...........................",
"X...................X.X.........................X.",
".................... . ...........................",
"..................................................",
".................................................."
};
