/* XPM */
static char *front_s1[] = {
/* columns rows colors chars-per-pixel */
"40 40 96 2 ",
"   c black",
".  c #010000",
"X  c #000100",
"o  c #010100",
"O  c #010101",
"+  c #030000",
"@  c #020100",
"#  c #020001",
"$  c #000200",
"%  c #000201",
"&  c #000002",
"*  c #010002",
"=  c #010103",
"-  c #040001",
";  c #000004",
":  c #000105",
">  c #040004",
",  c #624132",
"<  c #9B0100",
"1  c #9B0101",
"2  c #9D0000",
"3  c #9C0001",
"4  c #9E0000",
"5  c #FD0000",
"6  c #FE0000",
"7  c #FF0101",
"8  c #9C6230",
"9  c #9D6331",
"0  c #9C6232",
"q  c #9D6333",
"w  c #9C6431",
"e  c #9C6433",
"r  c #008300",
"t  c #018300",
"y  c #018201",
"u  c #008301",
"i  c #038201",
"p  c #008400",
"a  c #018400",
"s  c #008500",
"d  c #008501",
"f  c #028400",
"g  c #018402",
"h  c #01C500",
"j  c #00C600",
"k  c #00C601",
"l  c #00C702",
"z  c #FE9901",
"x  c #FE9A00",
"c  c #EEA407",
"v  c #F0A403",
"b  c #F1A408",
"n  c #FEFE3E",
"m  c #FEFF42",
"M  c #FFFF42",
"N  c #FFFF43",
"B  c #000082",
"V  c #000085",
"C  c #020085",
"Z  c #3F45FF",
"A  c #4343FB",
"S  c #4342FF",
"D  c #4243FF",
"F  c #4145FF",
"G  c #4344FE",
"H  c #000001",
"J  c #FDBE89",
"K  c #FFBC8B",
"L  c #FFBD8B",
"P  c #FDBE8B",
"I  c #FDBD8D",
"U  c #FEBC8C",
"Y  c #FFBD8C",
"T  c #FFBC8D",
"R  c #FFBD8D",
"E  c #FFBE8C",
"W  c #FFBC8F",
"Q  c #FFBE8E",
"!  c #8781FD",
"~  c #8583FF",
"^  c #8484FE",
"/  c #8484FF",
"(  c #8684FF",
")  c #8486FF",
"_  c #DDDEFD",
"`  c #DDDDFF",
"'  c #DCDFFF",
"]  c #DFDEFE",
"[  c #DEDEFF",
"{  c #E0DFFF",
"}  c #FFFFFD",
"|  c #FFFDFF",
" . c #FEFEFF",
".. c #FFFEFF",
"X. c #FEFFFF",
"o. c white",
/* pixels */
"H H H H H H H H H H H H H H H H H H H H H H H H H H H H H H & & $ $ H H H H H H ",
"H H H H H H H H H H H H H H H H H H H H H H H H H H H H H H & & $ $ H H H H H H ",
"H H H H H H H H H H H H H H H H H H H H H H H H H H H H     ] ] ! ! ; ; H H H H ",
"H H H H H H H H H H H H H H H H H H H H H H H H H H H H     ] ] ! ! ; ; H H H H ",
"H H H H H H H H H H H H     O O             H H H H H H & & _ _ ) )     H H H H ",
"H H H H H H H H H H H H     O O             H H H H H H & & _ _ ) )     H H H H ",
"H H H H H H H H H H . . p p p p k k j j t t X X H H H H . . ` ` ) ) ; ; H H H H ",
"H H H H H H H H H H . . p p p p k k j j t t X X H H H H . . ` ` ) ) ; ; H H H H ",
"H H H H H H . . X X g g i i g g     O O y y O O * * H H     [ [ ^ ^ . . H H H H ",
"H H H H H H . . X X g g i i g g     O O y y O O * * H H     [ [ ^ ^ . . H H H H ",
"H H H H & & Y Y & & p p N N m m N N n n         W W % % & & { { ^ ^ % % H H H H ",
"H H H H & & Y Y & & p p N N m m N N n n         W W % % & & { { ^ ^ % % H H H H ",
"H H H H     Q Q     M M X X . .         N N & & T T         ` ` ( ( . . H H H H ",
"H H H H     Q Q     M M X X . .         N N & & T T         ` ` ( ( . . H H H H ",
"H H H H o o U U - - z z b b v v c c b b x x     L L         ] ] ~ ~ X X H H H H ",
"H H H H o o U U - - z z b b v v c c b b x x     L L         ] ] ~ ~ X X H H H H ",
"H H H H X X 0 0 e e                 & & X X q q 8 8         ' ' / / @ @ H H H H ",
"H H H H X X 0 0 e e                 & & X X q q 8 8         ' ' / / @ @ H H H H ",
"H H H H H H     L L I I . . Q Q I I o o T T J J # #     . . ^ ^ ~ ~ . . . . H H ",
"H H H H H H     L L I I . . Q Q I I o o T T J J # #     . . ^ ^ ~ ~ . . . . H H ",
"    X X     & & = =     & & L L E E     T T 9 9 . . 1 1             & & 4 4 X X ",
"    X X     & & = =     & & L L E E     T T 9 9 . . 1 1             & & 4 4 X X ",
"    o.o.o.o.o o o.o.X.X.    L L R R K K e e X X 8 8 . . < < 6 6 6 6 2 2 . . H H ",
"    o.o.o.o.o o o.o.X.X.    L L R R K K e e X X 8 8 . . < < 6 6 6 6 2 2 . . H H ",
"+ + ....Z Z ....D D ....    @ @     % %         0 0 P P X X         & & H H H H ",
"+ + ....Z Z ....D D ....    @ @     % %         0 0 P P X X         & & H H H H ",
"& & | | C C V V B B ....    r r u u d d a a & &     T T * * 3 3 5 5 : : H H H H ",
"& & | | C C V V B B ....    r r u u d d a a & &     T T * * 3 3 5 5 : : H H H H ",
"& & X.X.A A G G D D X.X.X X j j l l j j h h p p % % X X & & 3 3 7 7 X X H H H H ",
"& & X.X.A A G G D D X.X.X X j j l l j j h h p p % % X X & & 3 3 7 7 X X H H H H ",
"& & X.X.S S F F S S o.o.& & f f s s > > X X X X . . H H H H     $ $ H H H H H H ",
"& & X.X.S S F F S S o.o.& & f f s s > > X X X X . . H H H H     $ $ H H H H H H ",
"H H . . } }  . .} } X X     & & X X w w 8 8 , , O O * * H H H H H H H H H H H H ",
"H H . . } }  . .} } X X     & & X X w w 8 8 , , O O * * H H H H H H H H H H H H ",
"H H H H . . = =     X X             & &     @ @ X X H H H H H H H H H H H H H H ",
"H H H H . . = =     X X             & &     @ @ X X H H H H H H H H H H H H H H ",
"H H     & & o o     + + & &     H H H H H H H H H H H H H H H H H H H H H H H H ",
"H H     & & o o     + + & &     H H H H H H H H H H H H H H H H H H H H H H H H ",
"H H H H H H H H H H H H H H H H H H H H H H H H H H H H H H H H H H H H H H H H ",
"H H H H H H H H H H H H H H H H H H H H H H H H H H H H H H H H H H H H H H H H "
};
