/* XPM */
static char *front_s2[] = {
/* columns rows colors chars-per-pixel */
"40 40 99 2 ",
"   c black",
".  c #010000",
"X  c #000100",
"o  c #010100",
"O  c #010101",
"+  c #030000",
"@  c #020100",
"#  c #000200",
"$  c #000201",
"%  c #000002",
"&  c #010002",
"*  c #000103",
"=  c #010103",
"-  c #040003",
";  c #010004",
":  c #624331",
">  c #9B0002",
",  c #9D0000",
"<  c #9C0100",
"1  c #9C0001",
"2  c #FD0100",
"3  c #FE0000",
"4  c #9B6330",
"5  c #9C6230",
"6  c #9D6331",
"7  c #9B6334",
"8  c #008300",
"9  c #018201",
"0  c #058202",
"q  c #048302",
"w  c #018400",
"e  c #018500",
"r  c #008501",
"t  c #028501",
"y  c #008600",
"u  c #018402",
"i  c #01C501",
"p  c #00C600",
"a  c #00C601",
"s  c #03C600",
"d  c #02C602",
"f  c #00C804",
"g  c #FF9800",
"h  c #FE9901",
"j  c #EEA403",
"k  c #EEA405",
"l  c #EFA508",
"z  c #F1A406",
"x  c #FFFD3F",
"c  c #FEFF3F",
"v  c #FFFE41",
"b  c #FEFF41",
"n  c #FFFF43",
"m  c #020082",
"M  c #010084",
"N  c #010185",
"B  c #4243FD",
"V  c #4242FF",
"C  c #4342FF",
"Z  c #4243FF",
"A  c #4044FD",
"S  c #4344FF",
"D  c #000001",
"F  c #FBBD8A",
"G  c #FDBE89",
"H  c #FCBD8A",
"J  c #FFBC8B",
"K  c #FFBD8B",
"L  c #FFBE8A",
"P  c #FFBB8C",
"I  c #FDBD8D",
"U  c #FFBC8D",
"Y  c #FFBD8D",
"T  c #FFBE8C",
"R  c #FDBD8F",
"E  c #FFBD8E",
"W  c #FFBC8F",
"Q  c #FFBE8E",
"!  c #8583FE",
"~  c #8483FF",
"^  c #8782FF",
"/  c #8185FF",
"(  c #8385FF",
")  c #8484FC",
"_  c #8484FF",
"`  c #8882FF",
"'  c #DEDDFC",
"]  c #DFDEFD",
"[  c #DDDDFF",
"{  c #DEDFFE",
"}  c #DEDEFF",
"|  c #DBE0FF",
" . c #FBFFFE",
".. c #FFFFFD",
"X. c #FCFFFF",
"o. c #FEFEFF",
"O. c #FFFEFF",
"+. c #FEFFFF",
"@. c white",
/* pixels */
"D D D D D D D D D D D D D D D D D D D D D D D D D D D D D D D D D D D D D D D D ",
"D D D D D D D D D D D D D D D D D D D D D D D D D D D D D D     X X D D D D D D ",
"D D D D D D D D D D D D D D D D D D D D D D D D D D D D D D     X X D D D D D D ",
"D D D D D D D D D D D D D D D D D D D D D D D D D D D D     } } ^ ^ % % D D D D ",
"D D D D D D D D D D D D D D D D D D D D D D D D D D D D     } } ^ ^ % % D D D D ",
"D D D D D D D D D D D D         % % % % $ $ D D D D D D X X ' ' _ _ % % D D D D ",
"D D D D D D D D D D D D         % % % % $ $ D D D D D D X X ' ' _ _ % % D D D D ",
"D D D D D D D D D D     y y w w d d s s 8 8 . . D D D D     [ [ ~ ~     D D D D ",
"D D D D D D D D D D     y y w w d d s s 8 8 . . D D D D     [ [ ~ ~     D D D D ",
"D D D D D D . . % % 8 8 w w w w X X ; ; r r X X % % D D - - { { ) ) % % D D D D ",
"D D D D D D . . % % 8 8 w w w w X X ; ; r r X X % % D D - - { { ) ) % % D D D D ",
"D D D D @ @ P P X X 0 0 b b b b n n v v     & & I I         } } ~ ~     D D D D ",
"D D D D @ @ P P X X 0 0 b b b b n n v v     & & I I         } } ~ ~     D D D D ",
"D D D D X X Q Q     c c X X = =         x x % % K K         ] ] ! ! % % D D D D ",
"D D D D X X Q Q     c c X X = =         x x % % K K         ] ] ! ! % % D D D D ",
"D D D D     R R . . h h z z k k l l j j g g * * F F . .     { { _ _ . . D D D D ",
"D D D D     R R . . h h z z k k l l j j g g * * F F . .     { { _ _ . . D D D D ",
"D D D D X X 5 5 5 5 % %     . .         ; ; 6 6 6 6 X X % % | | ( ( O O D D D D ",
"D D D D X X 5 5 5 5 % %     . .         ; ; 6 6 6 6 X X % % | | ( ( O O D D D D ",
"D D D D D D     K K K K % % G G W W . . T T H H % %     O O ` ` / /         D D ",
"D D D D D D     K K K K % % G G W W . . T T H H % %     O O ` ` / /         D D ",
"* * & & # # % %         % % Y Y U U X X Y Y 5 5     , ,         O O % % < < % % ",
"* * & & # # % %         % % Y Y U U X X Y Y 5 5     , ,         O O % % < < % % ",
". . ....@.@.O O +.+.o.o.O O L L I I T T 4 4 X X 7 7     1 1 3 3 3 3 < < . . D D ",
". . ....@.@.O O +.+.o.o.O O L L I I T T 4 4 X X 7 7     1 1 3 3 3 3 < < . . D D ",
"    O.O.Z Z ....S S @.@.% % X X     @ @ . . $ $ 4 4 J J X X % % X X . . D D D D ",
"    O.O.Z Z ....S S @.@.% % X X     @ @ . . $ $ 4 4 J J X X % % X X . . D D D D ",
"    ....N N m m M M +.+.    u u e e 9 9 t t         E E     > > 2 2     D D D D ",
"    ....N N m m M M +.+.    u u e e 9 9 t t         E E     > > 2 2     D D D D ",
"o o  . .A A V V C C +.+.X X p p i i f f a a w w     X X     < < 3 3 + + D D D D ",
"o o  . .A A V V C C +.+.X X p p i i f f a a w w     X X     < < 3 3 + + D D D D ",
"    O.O.B B C C C C O.O.. . q q e e % % . . X X $ $ D D D D         D D D D D D ",
"    O.O.B B C C C C O.O.. . q q e e % % . . X X $ $ D D D D         D D D D D D ",
"D D . . +.+.X.X...... . : : X X . . X X X X & &     D D D D D D D D D D D D D D ",
"D D . . +.+.X.X...... . : : X X . . X X X X & &     D D D D D D D D D D D D D D ",
"D D D D         % %                 X X % % & & D D D D D D D D D D D D D D D D ",
"D D D D         % %                 X X % % & & D D D D D D D D D D D D D D D D ",
"D D D D D D D D D D D D             O O     D D D D D D D D D D D D D D D D D D ",
"D D D D D D D D D D D D             O O     D D D D D D D D D D D D D D D D D D ",
"D D D D D D D D D D D D D D D D D D D D D D D D D D D D D D D D D D D D D D D D "
};
