/* XPM */
static char *front_2[] = {
/* columns rows colors chars-per-pixel */
"40 40 77 1 ",
"  c black",
". c #010000",
"X c #000100",
"o c #010100",
"O c #010101",
"+ c #020100",
"@ c #000200",
"# c #000201",
"$ c #000002",
"% c #010002",
"& c #000103",
"* c #010103",
"= c #010004",
"- c #624331",
"; c #9B6330",
": c #9C6230",
"> c #9D6331",
", c #9B6334",
"< c #008300",
"1 c #018201",
"2 c #058202",
"3 c #048302",
"4 c #018400",
"5 c #018500",
"6 c #008501",
"7 c #028501",
"8 c #008600",
"9 c #018402",
"0 c #01C501",
"q c #00C600",
"w c #00C601",
"e c #03C600",
"r c #02C602",
"t c #00C804",
"y c #FF9800",
"u c #FE9901",
"i c #EEA403",
"p c #EEA405",
"a c #EFA508",
"s c #F1A406",
"d c #FFFD3F",
"f c #FEFF3F",
"g c #FFFE41",
"h c #FEFF41",
"j c #FFFF43",
"k c #020082",
"l c #010084",
"z c #010185",
"x c #4243FD",
"c c #4242FF",
"v c #4342FF",
"b c #4243FF",
"n c #4044FD",
"m c #4344FF",
"M c #000001",
"N c #FBBD8A",
"B c #FDBE89",
"V c #FCBD8A",
"C c #FFBC8B",
"Z c #FFBD8B",
"A c #FFBE8A",
"S c #FFBB8C",
"D c #FDBD8D",
"F c #FFBC8D",
"G c #FFBD8D",
"H c #FFBE8C",
"J c #FDBD8F",
"K c #FFBD8E",
"L c #FFBC8F",
"P c #FFBE8E",
"I c #FBFFFE",
"U c #FFFFFD",
"Y c #FCFFFF",
"T c #FEFEFF",
"R c #FFFEFF",
"E c #FEFFFF",
"W c white",
/* pixels */
"MMMMMMMMMMMMMMMMMMMMMMMMMMMMMMMMMMMMMMMM",
"MMMMMMMMMMMMMMMMMMMMMMMMMMMMMMMMMMMMMMMM",
"MMMMMMMMMMMMMMM    $$$$##MMMMMMMMMMMMMMM",
"MMMMMMMMMMMMMMM    $$$$##MMMMMMMMMMMMMMM",
"MMMMMMMMMMMMM  8844rree<<..MMMMMMMMMMMMM",
"MMMMMMMMMMMMM  8844rree<<..MMMMMMMMMMMMM",
"MMMMMMMMM..$$<<4444XX==66XX$$MMMMMMMMMMM",
"MMMMMMMMM..$$<<4444XX==66XX$$MMMMMMMMMMM",
"MMMMMMM++SSXX22hhhhjjgg  %%DD  MMMMMMMMM",
"MMMMMMM++SSXX22hhhhjjgg  %%DD  MMMMMMMMM",
"MMMMMMMXXPP  ffXX**    dd$$ZZ  MMMMMMMMM",
"MMMMMMMXXPP  ffXX**    dd$$ZZ  MMMMMMMMM",
"MMMMMMM  JJ..uussppaaiiyy&&NN..MMMMMMMMM",
"MMMMMMM  JJ..uussppaaiiyy&&NN..MMMMMMMMM",
"MMMMMMMXX::::$$  ..    ==>>>>XXMMMMMMMMM",
"MMMMMMMXX::::$$  ..    ==>>>>XXMMMMMMMMM",
"MMMMMMMMM  ZZZZ$$BBLL..HHVV$$  MMMMMMMMM",
"MMMMMMMMM  ZZZZ$$BBLL..HHVV$$  MMMMMMMMM",
"MMM&&%%@@$$    $$GGFFXXGG::  MMMMMMMMMMM",
"MMM&&%%@@$$    $$GGFFXXGG::  MMMMMMMMMMM",
"MMM..UUWWOOEETTOOAADDHH;;XX,,  MMMMMMMMM",
"MMM..UUWWOOEETTOOAADDHH;;XX,,  MMMMMMMMM",
"MMM  RRbbUUmmWW$$XX  ++..##;;CCXXMMMMMMM",
"MMM  RRbbUUmmWW$$XX  ++..##;;CCXXMMMMMMM",
"MMM  UUzzkkllEE  99551177    KK  MMMMMMM",
"MMM  UUzzkkllEE  99551177    KK  MMMMMMM",
"MMMooIInnccvvEEXXqq00ttww44  XX  MMMMMMM",
"MMMooIInnccvvEEXXqq00ttww44  XX  MMMMMMM",
"MMM  RRxxvvvvRR..3355$$..XX##MMMMMMMMMMM",
"MMM  RRxxvvvvRR..3355$$..XX##MMMMMMMMMMM",
"MMMMM..EEYYUU..--XX..XXXX%%  MMMMMMMMMMM",
"MMMMM..EEYYUU..--XX..XXXX%%  MMMMMMMMMMM",
"MMMMMMM    $$        XX$$%%MMMMMMMMMMMMM",
"MMMMMMM    $$        XX$$%%MMMMMMMMMMMMM",
"MMMMMMMMMMMMMMM      OO  MMMMMMMMMMMMMMM",
"MMMMMMMMMMMMMMM      OO  MMMMMMMMMMMMMMM",
"MMMMMMMMMMMMMMMMMMMMMMMMMMMMMMMMMMMMMMMM",
"MMMMMMMMMMMMMMMMMMMMMMMMMMMMMMMMMMMMMMMM",
"MMMMMMMMMMMMMMMMMMMMMMMMMMMMMMMMMMMMMMMM",
"MMMMMMMMMMMMMMMMMMMMMMMMMMMMMMMMMMMMMMMM"
};
