/* XPM */
static char *front_1[] = {
/* columns rows colors chars-per-pixel */
"40 40 73 1 ",
"  c black",
". c #010000",
"X c #000100",
"o c #010100",
"O c #010101",
"+ c #030000",
"@ c #020100",
"# c #020001",
"$ c #000201",
"% c #000002",
"& c #010002",
"* c #010103",
"= c #040001",
"- c #040004",
"; c #624132",
": c #9C6230",
"> c #9D6331",
", c #9C6232",
"< c #9D6333",
"1 c #9C6431",
"2 c #9C6433",
"3 c #008300",
"4 c #018300",
"5 c #018201",
"6 c #008301",
"7 c #038201",
"8 c #008400",
"9 c #018400",
"0 c #008500",
"q c #008501",
"w c #028400",
"e c #018402",
"r c #01C500",
"t c #00C600",
"y c #00C601",
"u c #00C702",
"i c #FE9901",
"p c #FE9A00",
"a c #EEA407",
"s c #F0A403",
"d c #F1A408",
"f c #FEFE3E",
"g c #FEFF42",
"h c #FFFF42",
"j c #FFFF43",
"k c #000082",
"l c #000085",
"z c #020085",
"x c #3F45FF",
"c c #4343FB",
"v c #4342FF",
"b c #4243FF",
"n c #4145FF",
"m c #4344FE",
"M c #000001",
"N c #FDBE89",
"B c #FFBC8B",
"V c #FFBD8B",
"C c #FDBE8B",
"Z c #FDBD8D",
"A c #FEBC8C",
"S c #FFBD8C",
"D c #FFBC8D",
"F c #FFBD8D",
"G c #FFBE8C",
"H c #FFBC8F",
"J c #FFBE8E",
"K c #FFFFFD",
"L c #FFFDFF",
"P c #FEFEFF",
"I c #FFFEFF",
"U c #FEFFFF",
"Y c white",
/* pixels */
"MMMMMMMMMMMMMMMMMMMMMMMMMMMMMMMMMMMMMMMM",
"MMMMMMMMMMMMMMMMMMMMMMMMMMMMMMMMMMMMMMMM",
"MMMMMMMMMMMMMMMM  OO      MMMMMMMMMMMMMM",
"MMMMMMMMMMMMMMMM  OO      MMMMMMMMMMMMMM",
"MMMMMMMMMMMMMM..8888yytt44XXMMMMMMMMMMMM",
"MMMMMMMMMMMMMM..8888yytt44XXMMMMMMMMMMMM",
"MMMMMMMMMM..XXee77ee  OO55OO&&MMMMMMMMMM",
"MMMMMMMMMM..XXee77ee  OO55OO&&MMMMMMMMMM",
"MMMMMMMM%%SS%%88jjggjjff    HH$$MMMMMMMM",
"MMMMMMMM%%SS%%88jjggjjff    HH$$MMMMMMMM",
"MMMMMMMM  JJ  hhXX..    jj%%DD  MMMMMMMM",
"MMMMMMMM  JJ  hhXX..    jj%%DD  MMMMMMMM",
"MMMMMMMMooAA==iiddssaaddpp  VV  MMMMMMMM",
"MMMMMMMMooAA==iiddssaaddpp  VV  MMMMMMMM",
"MMMMMMMMXX,,22        %%XX<<::  MMMMMMMM",
"MMMMMMMMXX,,22        %%XX<<::  MMMMMMMM",
"MMMMMMMMMM  VVZZ..JJZZooDDNN##  MMMMMMMM",
"MMMMMMMMMM  VVZZ..JJZZooDDNN##  MMMMMMMM",
"MMMM  XX  %%**  %%VVGG  DD>>..MMMMMMMMMM",
"MMMM  XX  %%**  %%VVGG  DD>>..MMMMMMMMMM",
"MMMM  YYYYooYYUU  VVFFBB22XX::..MMMMMMMM",
"MMMM  YYYYooYYUU  VVFFBB22XX::..MMMMMMMM",
"MMMM++IIxxIIbbII  @@  $$    ,,CCXXMMMMMM",
"MMMM++IIxxIIbbII  @@  $$    ,,CCXXMMMMMM",
"MMMM%%LLzzllkkII  3366qq99%%  DD&&MMMMMM",
"MMMM%%LLzzllkkII  3366qq99%%  DD&&MMMMMM",
"MMMM%%UUccmmbbUUXXttuuttrr88$$XX%%MMMMMM",
"MMMM%%UUccmmbbUUXXttuuttrr88$$XX%%MMMMMM",
"MMMM%%UUvvnnvvYY%%ww00--XXXX..MMMMMMMMMM",
"MMMM%%UUvvnnvvYY%%ww00--XXXX..MMMMMMMMMM",
"MMMMMM..KKPPKKXX  %%XX11::;;OO&&MMMMMMMM",
"MMMMMM..KKPPKKXX  %%XX11::;;OO&&MMMMMMMM",
"MMMMMMMM..**  XX      %%  @@XXMMMMMMMMMM",
"MMMMMMMM..**  XX      %%  @@XXMMMMMMMMMM",
"MMMMMM  %%oo  ++%%  MMMMMMMMMMMMMMMMMMMM",
"MMMMMM  %%oo  ++%%  MMMMMMMMMMMMMMMMMMMM",
"MMMMMMMMMMMMMMMMMMMMMMMMMMMMMMMMMMMMMMMM",
"MMMMMMMMMMMMMMMMMMMMMMMMMMMMMMMMMMMMMMMM",
"MMMMMMMMMMMMMMMMMMMMMMMMMMMMMMMMMMMMMMMM",
"MMMMMMMMMMMMMMMMMMMMMMMMMMMMMMMMMMMMMMMM"
};
