/* XPM */
static char *ganon[] = {
/* columns rows colors chars-per-pixel */
"50 50 13 1 ",
"  c black",
". c #282828",
"X c #B83010",
"o c #886008",
"O c #E86040",
"+ c #C0A028",
"@ c #385088",
"# c #000001",
"$ c #5088A8",
"% c #A0A0B0",
"& c #88C8A0",
"* c #B090F8",
"= c #F8F8F8",
/* pixels */
"##################################################",
"#################....#####....####################",
"###############..oooo.....oooo...#################",
"###############..oooo.....oooo...#################",
"##############.....ooo...ooo....o.#############.##",
"#############.o&&&$...@@@...$&&&.o.###########.*.#",
"###########....&&@&$.@$$$@.$&@&&&..##########.*=*.",
"###########....&&@&$.@$$$@.$&@&&&..##########.*=*.",
"#########....X.&$@@$$@&&&@$$@@$&&.X.#########*=*.#",
"#######....OX.&$@.@$&$&&&$&$@.@$&&.O.#######.=*.##",
"#####..@@.OOO.&@.o.$@&$&&&@$.o.@&&.OO.#####.**.###",
"#####..@@.OOO.&@.o.$@&$&&&@$.o.@&&.OO.#####.**.###",
"#####@@$$.O==.$@.+..=@$$$@=..+.@$$.=..####.*=.####",
"####.$$$&.OOOO....$.+=@@@=+.$.....O.oo....*=*#####",
"####.$$$&.OOOO....$.+=@@@=+.$.....O.oo....*=*#####",
"####.$$&&&.OOOO..@$&.+=@@+.&$@..XOOo++o.@.=*.#####",
"###.@$&$$$$.XXX..@$$&&@&&&&$$@..XXXooo.@@.*.######",
"###.@$$$@$@..XXX..@@$@&&&@$@@..XXXXoo.@$@@.#######",
"###.@$$$@$@..XXX..@@$@&&&@$@@..XXXXoo.@$@@.#######",
"##.@$$@..@..o....=.=@@&$$@@=.=.....o.@@$$@.#######",
"##.@@$$@....oo...%.=.$.$$$.=.%..o.oo.@$$$@.#######",
"##...@$@. .X.oooo.....$$$.....ooooo..@$@$$@.######",
"##...@$@. .X.oooo.....$$$.....ooooo..@$@$$@.######",
"#.@$$@@.#..X.oooo..=%.....%=..ooooo..@$&$$@.######",
"#.$&$$@.#...X.oo..X%%.....%%X..ooo....$$&$@.######",
".@&$@$..#...XX.o.XX...%%%...XX.oo.*..@..&$@.######",
".@&$@$..#...XX.o.XX...%%%...XX.oo.*..@..&$@.######",
".@&$.&.##....XX..XX..%%%%%..XX...*=.@&@$$$@.######",
"..&$.&.##...o.XXXX.O.%%%%%.O.XX.*...@$&$$@.#######",
".@.&.$.##..oo..XX.....=%%......*.&&@$$$$$@.#######",
".@.&.$.##..oo..XX.....=%%......*.&&@$$$$$@.#######",
".$@.#.###...oo...o.....==.....*..$$.&$$$@.########",
"..&.#####....oo..o...%%%%%...*=.$.$&&$$@.#########",
".$.######......+oo..o.....o.*=*.@$$&$$@.##########",
".$.######......+oo..o.....o.*=*.@$$&$$@.##########",
"#..######...&$.o.....***...*=*.o.@@$@@.###########",
"#########...........*==.*=*=*...o.@@..############",
"#########.&$&$$$@. .=..*.*=*..@$.$..&.############",
"#########.&$&$$$@. .=..*.*=*..@$.$..&.############",
"####     .$.&$&$@..=. .=.**=..@$&&$.$.############",
"####    .&.&..&@@. .   .=..*..@@.&.&.&.###########",
"###     .&.&..&@@. .   .=..*..@@.&.&.&.###########",
"##      .=.=&....    ...=..*....&..=.=.###########",
"##       ..=..=.     .**.=*.*. .&=.=.. ###########",
"#          . .=     .*=*...=*.. .=..   ###########",
"#          . .=     .*=*. .=*.. .=..  ############",
"#             .    ..=*.. .=*..  .    ############",
"##                 .=... .=*..      ##############",
"#####             .=..##.=..######################",
"##################################################"
};
