/* XPM */
static char *left_1[] = {
/* columns rows colors chars-per-pixel */
"40 40 74 1 ",
"  c black",
". c #010000",
"X c #000100",
"o c #010101",
"O c #020100",
"+ c #000200",
"@ c #000201",
"# c #000002",
"$ c #010002",
"% c #010103",
"& c #030002",
"* c #020003",
"= c #000004",
"- c #010004",
"; c #634233",
": c #634432",
"> c #9B642E",
", c #9B6330",
"< c #9A6231",
"1 c #9B6332",
"2 c #9C6232",
"3 c #9A6533",
"4 c #9C6431",
"5 c #9C6433",
"6 c #9D6335",
"7 c #9C6435",
"8 c #008300",
"9 c #018300",
"0 c #008301",
"q c #038200",
"w c #008303",
"e c #008400",
"r c #018400",
"t c #008500",
"y c #018500",
"u c #008401",
"i c #028400",
"p c #008600",
"a c #008601",
"s c #008403",
"d c #00C600",
"f c #00C601",
"g c #01C702",
"h c #EEA508",
"j c #F0A305",
"k c #F4AD13",
"l c #F5AE18",
"z c #F6B014",
"x c #FFFF3F",
"c c #FDFE41",
"v c #FEFF42",
"b c #FFFF42",
"n c #FFFE43",
"m c #FFFF43",
"M c #000001",
"N c #A5A5A3",
"B c #A3A5A4",
"V c #A5A5A5",
"C c #A4A5A7",
"Z c gray65",
"A c #FFBC89",
"S c #FFBD89",
"D c #FFBE88",
"F c #FCBD8A",
"G c #FFBC8B",
"H c #FFBD8B",
"J c #FDBD8D",
"K c #FFBD8D",
"L c #FCBE8D",
"P c #FFBE8C",
"I c #FDBD8F",
"U c #FFBD8E",
"Y c #FFBE8E",
"T c #FEFEFE",
/* pixels */
"MMMMMMMMMMMMMMMMMMMMMMMMMMMMMMMMMMMMMMMM",
"MMMMMMMMMMMMMMMMMMMMMMMMMMMMMMMMMMMMMMMM",
"MMMMMMMMMMMMMMMMMMMMMMMMMMMMMMMMMMMMMMMM",
"MMMMMMMMMMMMMMMMMMMMMMMMMMMMMMMMMMMMMMMM",
"MMMMMMMMMMMMMMMM            MMMMMMMMMMMM",
"MMMMMMMMMMMMMMMM            MMMMMMMMMMMM",
"MMMMMMMMXXMMXX##99ffggww0099..  MMMMMMMM",
"MMMMMMMMXXMMXX##99ffggww0099..  MMMMMMMM",
"MMMMMM  --..xxbbXXpprrddddeeppss..MMMMMM",
"MMMMMM  --..xxbbXXpprrddddeeppss..MMMMMM",
"MMMMMM  hh  kkvvmm$$yyttoouuqqaa  MMMMMM",
"MMMMMM  hh  kkvvmm$$yyttoouuqqaa  MMMMMM",
"MMMMMMMM  jj  zzccnnXX$$JJ%%ttrr$$MMMMMM",
"MMMMMMMM  jj  zzccnnXX$$JJ%%ttrr$$MMMMMM",
"MMMMMM  ooXX##&&@@llXX,,LL$$ii==MMMMMMMM",
"MMMMMM  ooXX##&&@@llXX,,LL$$ii==MMMMMMMM",
"MMMMMM--TTooSS  GG    UUDD..00XXMMMMMMMM",
"MMMMMM--TTooSS  GG    UUDD..00XXMMMMMMMM",
"MMMMMMXX##  HH  FFYY  GGKKoo  MMMMMMMMMM",
"MMMMMMXX##  HH  FFYY  GGKKoo  MMMMMMMMMM",
"MMMMMM  VV##55IIHHAAXXHH33XXMMMMMMMMMMMM",
"MMMMMM  VV##55IIHHAAXXHH33XXMMMMMMMMMMMM",
"MMMMMM  BB..    oo##..    ##MMMMMMMMMMMM",
"MMMMMM  BB..    oo##..    ##MMMMMMMMMMMM",
"MMMMMM..NN..;;XXPPGGXX2266..  MMMMMMMMMM",
"MMMMMM..NN..;;XXPPGGXX2266..  MMMMMMMMMM",
"MMMMMM  CCXX::XXSSYY  11..  77XXMMMMMMMM",
"MMMMMM  CCXX::XXSSYY  11..  77XXMMMMMMMM",
"MMMMMMXXZZXX..##ooXXXXXXee##>>**MMMMMMMM",
"MMMMMMXXZZXX..##ooXXXXXXee##>>**MMMMMMMM",
"MMMMMM..  ..11,,<<22  88$$2244##MMMMMMMM",
"MMMMMM..  ..11,,<<22  88$$2244##MMMMMMMM",
"MMMMMMMMMMXX..++OOXX$$##XX  ..##  MMMMMM",
"MMMMMMMMMMXX..++OOXX$$##XX  ..##  MMMMMM",
"MMMMMMMMMMMMMMMMMMMMMMMMMMMMMMMMMMMMMMMM",
"MMMMMMMMMMMMMMMMMMMMMMMMMMMMMMMMMMMMMMMM",
"MMMMMMMMMMMMMMMMMMMMMMMMMMMMMMMMMMMMMMMM",
"MMMMMMMMMMMMMMMMMMMMMMMMMMMMMMMMMMMMMMMM",
"MMMMMMMMMMMMMMMMMMMMMMMMMMMMMMMMMMMMMMMM",
"MMMMMMMMMMMMMMMMMMMMMMMMMMMMMMMMMMMMMMMM"
};
