/* XPM */
static char *left_2[] = {
/* columns rows colors chars-per-pixel */
"40 40 68 1 ",
"  c black",
". c #010000",
"X c #000100",
"o c #010100",
"O c #010101",
"+ c #030000",
"@ c #020001",
"# c #000200",
"$ c #000201",
"% c #000002",
"& c #010002",
"* c #000102",
"= c #000103",
"- c #010103",
"; c #000004",
": c #010005",
"> c #634231",
", c #644030",
"< c #9B6330",
"1 c #9B6332",
"2 c #9C6230",
"3 c #9E6132",
"4 c #9C6232",
"5 c #9D6333",
"6 c #9F6233",
"7 c #9A6531",
"8 c #9C6433",
"9 c #008300",
"0 c #018300",
"q c #008301",
"w c #028302",
"e c #008400",
"r c #018400",
"t c #008500",
"y c #038501",
"u c #008600",
"i c #018402",
"p c #008502",
"a c #008602",
"s c #01C500",
"d c #00C600",
"f c #00C601",
"g c #EEA405",
"h c #F1A406",
"j c #F5AE14",
"k c #F5AE16",
"l c #FFFF40",
"z c #FEFD43",
"x c #FEFF42",
"c c #FFFF43",
"v c #000001",
"b c #A4A4A2",
"n c #A6A6A4",
"m c #A7A6A4",
"M c #A5A5A7",
"N c #FFBC8B",
"B c #FFBD8B",
"V c #FDBE8B",
"C c #FDBD8D",
"Z c #FEBC8C",
"A c #FFBC8D",
"S c #FFBD8D",
"D c #FFBE8C",
"F c #FFBD8E",
"G c #FFBE8E",
"H c #FFBD90",
"J c #FFFEFF",
"K c white",
/* pixels */
"vvvvvvvvvvvvvvvvvvvvvvvvvvvvvvvvvvvvvvvv",
"vvvvvvvvvvvvvvvvvvvvvvvvvvvvvvvvvvvvvvvv",
"vvvvvvvvvvvvvvvvvvvvvvvvvvvvvvvvvvvvvvvv",
"vvvvvvvvvvvvvvvvv  ..%%  OOvvvvvvvvvvvvv",
"vvvvvvvvvvvvvvvvv  ..%%  OOvvvvvvvvvvvvv",
"vvvvvvvvvvvvv    iiddpprrww&&vvvvvvvvvvv",
"vvvvvvvvvvvvv    iiddpprrww&&vvvvvvvvvvv",
"vvvvvvvvvvvXXllzzOOeeffssqq00**vvvvvvvvv",
"vvvvvvvvvvvXXllzzOOeeffssqq00**vvvvvvvvv",
"vvvvvvv::    jjccxx&&tt00XXaaww  vvvvvvv",
"vvvvvvv::    jjccxx&&tt00XXaaww  vvvvvvv",
"vvvvvvv..hh..%%jjxxccXXXXVV..00uu%%vvvvv",
"vvvvvvv..hh..%%jjxxccXXXXVV..00uu%%vvvvv",
"vvvvvvv..%%gg..$$  kk..88BBXXyy00%%vvvvv",
"vvvvvvv..%%gg..$$  kk..88BBXXyy00%%vvvvv",
"vvvvvvvvvvv..CC%%AA##  AABB--99..vvvvvvv",
"vvvvvvvvvvv..CC%%AA##  AABB--99..vvvvvvv",
"vvvvvvv  ..%%HH  DDCC..SSZZ  $$vvvvvvvvv",
"vvvvvvv  ..%%HH  DDCC..SSZZ  $$vvvvvvvvv",
"vvvvvvv  JJXXSSFFZZGG%%BB55  vvvvvvvvvvv",
"vvvvvvv  JJXXSSFFZZGG%%BB55  vvvvvvvvvvv",
"vvvvvvv%%KK  NN<<7733XX66%%OOvvvvvvvvvvv",
"vvvvvvv%%KK  NN<<7733XX66%%OOvvvvvvvvvvv",
"vvvvvvv%%nn%%XX..%%  %%  11@@vvvvvvvvvvv",
"vvvvvvv%%nn%%XX..%%  %%  11@@vvvvvvvvvvv",
"vvvvvvv..MM  ,,@@%%SSDDXX44    vvvvvvvvv",
"vvvvvvv..MM  ,,@@%%SSDDXX44    vvvvvvvvv",
"vvvvvvv**mmXX>>    AASS++##rr@@vvvvvvvvv",
"vvvvvvv**mmXX>>    AASS++##rr@@vvvvvvvvv",
"vvvvvvv$$bb  %%  ==  %%;;XXXXoovvvvvvvvv",
"vvvvvvv$$bb  %%  ==  %%;;XXXXoovvvvvvvvv",
"vvvvvvvXXMM  %%XX..22222244OOvvvvvvvvvvv",
"vvvvvvvXXMM  %%XX..22222244OOvvvvvvvvvvv",
"vvvvvvvXX&&XX==  &&XX  &&%%  $$vvvvvvvvv",
"vvvvvvvXX&&XX==  &&XX  &&%%  $$vvvvvvvvv",
"vvvvvvvvvvvvvvvvvvvvvvvvvvvvvvvvvvvvvvvv",
"vvvvvvvvvvvvvvvvvvvvvvvvvvvvvvvvvvvvvvvv",
"vvvvvvvvvvvvvvvvvvvvvvvvvvvvvvvvvvvvvvvv",
"vvvvvvvvvvvvvvvvvvvvvvvvvvvvvvvvvvvvvvvv",
"vvvvvvvvvvvvvvvvvvvvvvvvvvvvvvvvvvvvvvvv"
};
