/* XPM */
static char *no_sword[] = {
/* columns rows colors chars-per-pixel */
"50 50 98 2 ",
"   c #000B00",
".  c #041006",
"X  c #161614",
"o  c #151F17",
"O  c #221C1E",
"+  c #0F2F1A",
"@  c #132916",
"#  c #182418",
"$  c #162D1A",
"%  c #1B2A1D",
"&  c #1C311E",
"*  c #21271B",
"=  c #212B1F",
"-  c #281D25",
";  c #1F2120",
":  c #1C2C21",
">  c #1F3123",
",  c #1B3F23",
"<  c #242526",
"1  c #2A2525",
"2  c #242923",
"3  c #292826",
"4  c #252629",
"5  c #29242A",
"6  c #242B29",
"7  c #2D292B",
"8  c #322A2F",
"9  c #213226",
"0  c #23332A",
"q  c #273E2C",
"w  c #322C30",
"e  c #68956E",
"r  c #668F72",
"t  c #6D8F74",
"y  c #738D75",
"u  c #768679",
"i  c #738D79",
"p  c #7A8C7E",
"a  c #679373",
"s  c #6D9575",
"d  c #679976",
"f  c #6C9976",
"g  c #6E9578",
"h  c #6D997A",
"j  c #719476",
"k  c #719976",
"l  c #72937A",
"z  c #79927C",
"x  c #719C7C",
"c  c #6CA07A",
"v  c #71A07C",
"b  c #000001",
"n  c #7A8F80",
"m  c #6E9880",
"M  c #739481",
"N  c #7B9280",
"B  c #759E80",
"V  c #7B9D83",
"C  c #819E88",
"Z  c #94B89E",
"A  c #86C090",
"S  c #8FCD9E",
"D  c #95C59B",
"F  c #92CA9D",
"G  c #98D29F",
"H  c #95CDA2",
"J  c #9BCDA5",
"K  c #9CCEA8",
"L  c #94D4A4",
"P  c #9BD0A5",
"I  c #97D0AD",
"U  c #9CD3AA",
"Y  c #9DD8A8",
"T  c #A0CFA3",
"R  c #A3C7AB",
"E  c #A1CEAB",
"W  c #A2D3AC",
"Q  c #A0DBAD",
"!  c #AACEB2",
"~  c #A5D1B0",
"^  c #B6F7C6",
"/  c #BAF6C3",
"(  c #B4F9C6",
")  c #B5F7C9",
"_  c #BCF6CB",
"`  c #B6F8C8",
"'  c #BEFDCE",
"]  c #BDFFD1",
"[  c #C1FECE",
"{  c #C4F4D2",
"}  c #C1FFD0",
"|  c #CAFCD5",
" . c #CCFDDA",
".. c #D1FAD6",
"X. c #D5FFDC",
"o. c #DBFEDE",
"O. c #DBFEE1",
"+. c #E1FEE2",
/* pixels */
"b b b b b b b b b b b b b b b b b b b b b b b b b b b b b b b b b b b b b b b b b b b b b b b b b b ",
"b b b b b b b b b b b b b b b b b b b b b b b b b b b b b b b b b b b b b b b b b b b b b b b b b b ",
"b b b b b b b b b b b b b b b b b b b b b b b b b b b b b b b b b b b b b b b b b b b b b b b b b b ",
"b b b b b b b b b b b b b b b b b b b b b b b b b b b b b b b b b b b b b b b b b b b b b b b b b b ",
"b b b b b b b b b b b b b b b b b b b b b b b b b b b b b b b b b b b b b b b b b b b b b b b b b b ",
"b b b b b b b b b b b b b b b b b b b b b b b b b b b b b b b b b b b b b b b b b b b b b b b b b b ",
"b b b b b b b b b b b b b b b b b b b b b b b b b b b b b b b b b b b b b b b b b b b b b b b b b b ",
"b b b b b b b b b b b b b b b b b b b b b b b b b b b b b b b b b b b b b b b b b b b b b b b b b b ",
"b b b : : : 6 : : 2 : : % w @ b b b b b b b b b b b b b b b b b b b b - 2 2 : : : : < 2 2 * b b b b ",
"b b 5 J } [ H U K P J J P 2 2 Y b b b b b b b b b b b b b b b b b K J 5 R P P P J J L L [ I : 4 b b ",
"b b 2 l K H ' F P P P J P 5 = P P W Q W W W Q W Q W W W W W W W W Q J 5 R L J P P H [ [ I k 0 4 b b ",
"b b 4 g j s P [ ] } } } [ 2 2 d f k s k k k s j s s k k k k f k j s h O | | } } ] | P J x r : 4 b b ",
"b b 4 g l s L } ] } } } ] 2 2 s s j s s s s j f s s s s f k s j s s h O ..} } } } | L J x r : < b b ",
"b b 4 j g s P O.O.O.O.O.o.5 2 r W K P K K P P P P P P P P P P P J s l 3 +.+.X.O.O.O.P E d g : 4 b b ",
"b b 4 l l g J O.O.X.X.X.X.< = j K P P P K P P P P P K P P P P P K a g 5 O.O.X.X.X.+.P W g g : 4 b b ",
"b b 4 g g g J O.X.` / / ( 2 2 r K W W P W P P K P P P P P T Y W W r g 5 ..] } } } +.K K g d : < b b ",
"b b 4 l l g P O.X.` ` ) / 5 < j s s d s s s j f j f j f j f s s s g j 5 | ] } ' } +.J P g g : 4 b b ",
"b b < i g d P O.X.[ } [ ' 2 2 s W J J J K P P P P P P P P P J K J a j 5  .] } } | +.K W g g : < b b ",
"b b 4 g l g P O.X.} } ] [ 2 = j E P P P P P P P P P P T P P P P P s s 5  .] ] ' } +.J W d g : < b b ",
"b b 4 g g g P O.O.} } [ ' 2 2 s s s s s f j s s j s s e j s s d s a g 5 { ] ] [ | +.P K s h : 4 b b ",
"b b 4 g l g K O.O.' ] } }   . s s s s s s k s s s s s s s s f j d d c 5 _ } } [ | O.P P g g : < b b ",
"b b 4 g l g J O.O.] [ } } P ! ] [ [ [ ] [ [ } ' [ } [ } [ [ [ [ [ ] [ P } ] } ' | +.J W g g : < b b ",
"b b < l g d P O.O.] } ] } L A } [ ] [ } ] ' } ] } ] ' ] ] [ [ [ } ] [ K [ ] } } [ +.K E g g : 4 b b ",
"b b < g g s P O.O.] [ } ' K P } } } } } } 5 5 5 5 5 5 5 5 [ } ' [ ] [ J [ } } [ | o.K T g g : < b b ",
"b b < g l g J O.O.] ] } ] K U ] } } } } } ] } ] ' } } [ } } } } } ] [ P [ ] } ] | +.P E g d : 4 b b ",
"b b 4 j g g J O.X.] } ] _ Y Y ]  .} [ } } [ } [ } ] } } } } } } } ]  .P ^ ] } [ } +.P E g s : < b b ",
"b b 4 l g g P O.O.] } } ' } } P } } [ } [ } } } [ } } [ } [ [ } [ P P ' } } } [ | O.P U g g : < b b ",
"b b 4 g l d P O.O.' } [ [ ' ` | H P P P P P P P P P P P T P P P K ] ] [ } ' } ] | +.P K g g : 4 b b ",
"b b 4 j l g J O.O.] ] ] ' } } ] } ] ' ' ' ' ' ' ' ' ' ' ' [ ' ' ' ' ' } } } ] ] | O.J E g g : < b b ",
"b b 4 l g g K } | X.[ ] } } } } } } } } [ } } } } } ] } } } } ] [ } ] } ' ] ] O.X.} P R g g : 4 b b ",
"b b 5 s g r g H P { X. .} } [ } [ ] } } } } } ] [ } [ } } ' } } [ } [ [ ] } X.| _ L x B s d : 5 b b ",
"b b < l g g g R H } O.X.| | | | | | | | | | | | | | | | | | | | | | | |  . .O.} | ~ g g h s : < b b ",
"b b 4 s g g g g j J } { O.X.+.o.O.O.O.O.O.O.O.O.O.O.O.O.O.O.O.O.O.O.O.O.o.X.[ J W g g g g g % < b b ",
"b b 4 l g g g j g l E K K K P K P K K K K K P P K P K K P P K P K K K K P J P e t k g l g g : 4 b b ",
"b b 4 g j g g g g g J J h : 2 2 2 2 2 2 4 2 2 2 2 2 2 2 2 4 2 2 < 2 2 2 N h P s l g g g g g : < b b ",
"b b < g g g g g g g J J j 5 ; z z M z M z M z M M M z M l M z M z M z 7 z g P d g g g g g d : < b b ",
"b b < l g g g g g g J J s < 2 k % i s s & : = y j x : 2 % k s z % j g - z g P h l g g g g g : 4 b b ",
"b b 2 g g l g g g i J J j 2 2 V # N i j : ; 2 y i C 0 = o y l y 0 z g 1 p g J s l g g g l s : < b b ",
"b b 2 l j l g g g g K J j < 2 x # N l l $ : 2 y l V 0 = o y j j 0 z d 1 z g P h g g g g g s : < b b ",
"b b 4 j r g g g g g K K s 2 2 z L $ 2 5 ! K G : 2 5 W K P 2 < 4 T s g 5 z g K h l g g s y g 9 : b b ",
"b b b X u g g g g g J J t < 2 h y D P G v s l H P Y x l r S P F B M z 3 z g K f l g s g g 3 b b b b ",
"b b b b # < j g g g J J g 4 = z 2 1 1 s % 3 3 l s s = 1 < g z 8 O n d 1 z g K g g g d z 6 b b b b b ",
"b b b b b b + y m r K H a > q s W R W 2 Z J J 9 % 2 K J J % q K J k V % t d J s C u : , b b b b b b ",
"b b b b b b b $ < y E J F h s s f d s d f h g f f f g g g s s d g h f d P J J s p 3 b b b b b b b b ",
"b b b b b b b b b : n d U ' ' ' [ [ ' ' ' ' ' ' ' [ ' ' ' ' ' ' ' [ ' ' H K l < @ b b b b b b b b b ",
"b b b b b b b b b b # 8 < 5 5 5 5 5 5 5 5 5 5 5 5 5 5 5 5 5 5 5 5 5 5 5 1 < 8 b b b b b b b b b b b ",
"b b b b b b b b b b b b b b b b b b b b b b b b b b b b b b b b b b b b b b b b b b b b b b b b b b ",
"b b b b b b b b b b b b b b b b b b b b b b b b b b b b b b b b b b b b b b b b b b b b b b b b b b ",
"b b b b b b b b b b b b b b b b b b b b b b b b b b b b b b b b b b b b b b b b b b b b b b b b b b ",
"b b b b b b b b b b b b b b b b b b b b b b b b b b b b b b b b b b b b b b b b b b b b b b b b b b "
};
