/* XPM */
static char *right_s2[] = {
/* columns rows colors chars-per-pixel */
"40 40 79 1 ",
"  c black",
". c #010000",
"X c #000100",
"o c #010100",
"O c #010101",
"+ c #030000",
"@ c #020100",
"# c #020001",
"$ c #000201",
"% c #000002",
"& c #010002",
"* c #000103",
"= c #010103",
"- c #000400",
"; c #020005",
": c #020204",
"> c #63422F",
", c #634231",
"< c #9A0000",
"1 c #9B0000",
"2 c #9B0100",
"3 c #9C0100",
"4 c #9D0002",
"5 c #FE0000",
"6 c #FE0002",
"7 c #FE0003",
"8 c #9C632E",
"9 c #9B642E",
"0 c #9B6330",
"q c #9C6230",
"w c #9D6331",
"e c #9C6232",
"r c #9D6333",
"t c #9C6433",
"y c #008300",
"u c #028302",
"i c #008400",
"p c #018400",
"a c #008500",
"s c #028400",
"d c #008404",
"f c #018404",
"g c #01C702",
"h c #F0A403",
"j c #F1A305",
"k c #F7AE14",
"l c #F6AF15",
"z c #FFFF3F",
"x c #FDFE41",
"c c #FEFF42",
"v c #FFFF42",
"b c #FFFF45",
"n c #000001",
"m c #A3A5A2",
"M c #A5A5A5",
"N c #A6A4A7",
"B c #A7A5A8",
"V c #FFBD8B",
"C c #FDBE8B",
"Z c #FFBD8D",
"A c #FFBD8E",
"S c #FFBC8F",
"D c #FFBE8E",
"F c #8483FB",
"G c #8482FD",
"H c #8783FC",
"J c #8583FE",
"K c #8783FE",
"L c #8385FF",
"P c #8286FF",
"I c #8484FF",
"U c #8486FF",
"Y c #DDDEFD",
"T c #DEDFFD",
"R c #DCDFFF",
"E c #DEDFFE",
"W c #DFDFFF",
"Q c #FFFFFB",
"! c white",
/* pixels */
"nnnnnnnnnnnnnnnnnnnnnnnnnnnnnnnnnnnnnnnn",
"nnnnnnnnnnnnnnnnnnnnnnnnnnnnnnnnnnnnnnnn",
"nnnnnnnnnnnnnnnnnnnnnnnnnnnnnnnnnnnnnnnn",
"nnnnnnnnnnnnn%%%%XX@@XXnnnnnnnnnnnnnnnnn",
"nnnnnnnnnnnnn%%%%XX@@XXnnnnnnnnnnnnnnnnn",
"nnnnnnnnnnn  ##EEII..uu%%  nnnnnnnnnnnnn",
"nnnnnnnnnnn  ##EEII..uu%%  nnnnnnnnnnnnn",
"nnnnnnnnn  ddXXYYPP  &&zzbb  nnnnnnnnnnn",
"nnnnnnnnn  ddXXYYPP  &&zzbb  nnnnnnnnnnn",
"nnnnnnn  iipp  TTKKXXxxvvkk  OO  nnnnnnn",
"nnnnnnn  iipp  TTKKXXxxvvkk  OO  nnnnnnn",
"nnnnn;;aapp..%%EEGG**ccll..XXhh  nnnnnnn",
"nnnnn;;aapp..%%EEGG**ccll..XXhh  nnnnnnn",
"nnnnnXXaaffXX  YYJJ%%XX    jjXX@@nnnnnnn",
"nnnnnXXaaffXX  YYJJ%%XX    jjXX@@nnnnnnn",
"nnnnnnnooyy%%XXWWFF%%CCXXSS  %%XX**nnnnn",
"nnnnnnnooyy%%XXWWFF%%CCXXSS  %%XX**nnnnn",
"nnnnnnnnn  ..XXYYUU..DD..AAZZ  QQ..nnnnn",
"nnnnnnnnn  ..XXYYUU..DD..AAZZ  QQ..nnnnn",
"nnnnnnnnnnn    RRLL..VVCC99  ..!!..nnnnn",
"nnnnnnnnnnn    RRLL..VVCC99  ..!!..nnnnn",
"nnnnnnnnnnn  XXHHII  %%rrXX%%==mm::nnnnn",
"nnnnnnnnnnn  XXHHII  %%rrXX%%==mm::nnnnn",
"nnnnnnnnn  44$$XX%%OO22    >>--NN  nnnnn",
"nnnnnnnnn  44$$XX%%OO22    >>--NN  nnnnn",
"nnnnnnnnn    337755<<XXss%%,,&&BB  nnnnn",
"nnnnnnnnn    337755<<XXss%%,,&&BB  nnnnn",
"nnnnnnn  tt    %%  ..XXggXX    MM  nnnnn",
"nnnnnnn  tt    %%  ..XXggXX    MM  nnnnn",
"nnnnnnn..ee%%XX1166  &&..##    MM  nnnnn",
"nnnnnnn..ee%%XX1166  &&..##    MM  nnnnn",
"nnnnnnn%%qq88XX4455XX00ww00        nnnnn",
"nnnnnnn%%qq88XX4455XX00ww00        nnnnn",
"nnnnn..XXOOXX    XXXX  ++XX  nnnnnnnnnnn",
"nnnnn..XXOOXX    XXXX  ++XX  nnnnnnnnnnn",
"nnnnnnnnnnnnnnnnnnnnnnnnnnnnnnnnnnnnnnnn",
"nnnnnnnnnnnnnnnnnnnnnnnnnnnnnnnnnnnnnnnn",
"nnnnnnnnnnnnnnnnnnnnnnnnnnnnnnnnnnnnnnnn",
"nnnnnnnnnnnnnnnnnnnnnnnnnnnnnnnnnnnnnnnn",
"nnnnnnnnnnnnnnnnnnnnnnnnnnnnnnnnnnnnnnnn"
};
