/* XPM */
static char *right_1[] = {
/* columns rows colors chars-per-pixel */
"40 40 68 1 ",
"  c black",
". c #010000",
"X c #000100",
"o c #010100",
"O c #010101",
"+ c #030000",
"@ c #020001",
"# c #000200",
"$ c #000201",
"% c #000002",
"& c #010002",
"* c #000102",
"= c #000103",
"- c #010103",
"; c #000004",
": c #010005",
"> c #634231",
", c #644030",
"< c #9B6330",
"1 c #9B6332",
"2 c #9C6230",
"3 c #9E6132",
"4 c #9C6232",
"5 c #9D6333",
"6 c #9F6233",
"7 c #9A6531",
"8 c #9C6433",
"9 c #008300",
"0 c #018300",
"q c #008301",
"w c #028302",
"e c #008400",
"r c #018400",
"t c #008500",
"y c #038501",
"u c #008600",
"i c #018402",
"p c #008502",
"a c #008602",
"s c #01C500",
"d c #00C600",
"f c #00C601",
"g c #EEA405",
"h c #F1A406",
"j c #F5AE14",
"k c #F5AE16",
"l c #FFFF40",
"z c #FEFD43",
"x c #FEFF42",
"c c #FFFF43",
"v c #000001",
"b c #A4A4A2",
"n c #A6A6A4",
"m c #A7A6A4",
"M c #A5A5A7",
"N c #FFBC8B",
"B c #FFBD8B",
"V c #FDBE8B",
"C c #FDBD8D",
"Z c #FEBC8C",
"A c #FFBC8D",
"S c #FFBD8D",
"D c #FFBE8C",
"F c #FFBD8E",
"G c #FFBE8E",
"H c #FFBD90",
"J c #FFFEFF",
"K c white",
/* pixels */
"vvvvvvvvvvvvvvvvvvvvvvvvvvvvvvvvvvvvvvvv",
"vvvvvvvvvvvvvvvvvvvvvvvvvvvvvvvvvvvvvvvv",
"vvvvvvvvvvvvvvvvvvvvvvvvvvvvvvvvvvvvvvvv",
"vvvvvvvvvvvvvvOO  %%..  vvvvvvvvvvvvvvvv",
"vvvvvvvvvvvvvvOO  %%..  vvvvvvvvvvvvvvvv",
"vvvvvvvvvvvv&&wwrrppddii    vvvvvvvvvvvv",
"vvvvvvvvvvvv&&wwrrppddii    vvvvvvvvvvvv",
"vvvvvvvvvv**00qqssffeeOOzzllXXvvvvvvvvvv",
"vvvvvvvvvv**00qqssffeeOOzzllXXvvvvvvvvvv",
"vvvvvvvv  wwaaXX00tt&&xxccjj    ::vvvvvv",
"vvvvvvvv  wwaaXX00tt&&xxccjj    ::vvvvvv",
"vvvvvv%%uu00..VVXXXXccxxjj%%..hh..vvvvvv",
"vvvvvv%%uu00..VVXXXXccxxjj%%..hh..vvvvvv",
"vvvvvv%%00yyXXBB88..kk  $$..gg%%..vvvvvv",
"vvvvvv%%00yyXXBB88..kk  $$..gg%%..vvvvvv",
"vvvvvvvv..99--BBAA  ##AA%%CC..vvvvvvvvvv",
"vvvvvvvv..99--BBAA  ##AA%%CC..vvvvvvvvvv",
"vvvvvvvvvv$$  ZZSS..CCDD  HH%%..  vvvvvv",
"vvvvvvvvvv$$  ZZSS..CCDD  HH%%..  vvvvvv",
"vvvvvvvvvvvv  55BB%%GGZZFFSSXXJJ  vvvvvv",
"vvvvvvvvvvvv  55BB%%GGZZFFSSXXJJ  vvvvvv",
"vvvvvvvvvvvvOO%%66XX3377<<NN  KK%%vvvvvv",
"vvvvvvvvvvvvOO%%66XX3377<<NN  KK%%vvvvvv",
"vvvvvvvvvvvv@@11  %%  %%..XX%%nn%%vvvvvv",
"vvvvvvvvvvvv@@11  %%  %%..XX%%nn%%vvvvvv",
"vvvvvvvvvv    44XXDDSS%%@@,,  MM..vvvvvv",
"vvvvvvvvvv    44XXDDSS%%@@,,  MM..vvvvvv",
"vvvvvvvvvv@@rr##++SSAA    >>XXmm**vvvvvv",
"vvvvvvvvvv@@rr##++SSAA    >>XXmm**vvvvvv",
"vvvvvvvvvvooXXXX;;%%  ==  %%  bb$$vvvvvv",
"vvvvvvvvvvooXXXX;;%%  ==  %%  bb$$vvvvvv",
"vvvvvvvvvvvvOO44222222..XX%%  MMXXvvvvvv",
"vvvvvvvvvvvvOO44222222..XX%%  MMXXvvvvvv",
"vvvvvvvvvv$$  %%&&  XX&&  ==XX&&XXvvvvvv",
"vvvvvvvvvv$$  %%&&  XX&&  ==XX&&XXvvvvvv",
"vvvvvvvvvvvvvvvvvvvvvvvvvvvvvvvvvvvvvvvv",
"vvvvvvvvvvvvvvvvvvvvvvvvvvvvvvvvvvvvvvvv",
"vvvvvvvvvvvvvvvvvvvvvvvvvvvvvvvvvvvvvvvv",
"vvvvvvvvvvvvvvvvvvvvvvvvvvvvvvvvvvvvvvvv",
"vvvvvvvvvvvvvvvvvvvvvvvvvvvvvvvvvvvvvvvv"
};
