/* XPM */
static char *right_s1[] = {
/* columns rows colors chars-per-pixel */
"40 40 72 1 ",
"  c black",
". c #010000",
"X c #000100",
"o c #010100",
"O c #010101",
"+ c #030000",
"@ c #020100",
"# c #000200",
"$ c #000201",
"% c #000002",
"& c #010002",
"* c #000103",
"= c #010103",
"- c #030002",
"; c #000004",
": c #010004",
"> c #644330",
", c #654133",
"< c #9B0100",
"1 c #9B0101",
"2 c #9B0200",
"3 c #9D0000",
"4 c #FE0000",
"5 c #FF0101",
"6 c #FE0002",
"7 c #FF0103",
"8 c #9B6332",
"9 c #9C6230",
"0 c #008300",
"q c #018201",
"w c #008303",
"e c #008400",
"r c #028400",
"t c #018402",
"y c #008502",
"u c #008603",
"i c #00C702",
"p c #EEA405",
"a c #EEA407",
"s c #F6AD12",
"d c #F6AC17",
"f c #FDFF41",
"g c #FEFF41",
"h c #FFFF42",
"j c #FFFE43",
"k c #FFFF43",
"l c #000001",
"z c #A5A5A3",
"x c #A6A5A3",
"c c #A6A4A5",
"v c #A4A6A5",
"b c #A5A5A7",
"n c #FCBD8A",
"m c #FDBE8B",
"M c #FEBC8C",
"N c #FFBD8C",
"B c #FFBC8F",
"V c #FFBE8E",
"C c #8383FD",
"Z c #8384FF",
"A c #8385FF",
"S c #8584FC",
"D c #8484FE",
"F c #8484FF",
"G c #8486FF",
"H c #DBDEFF",
"J c #DFDEFD",
"K c #DFDEFE",
"L c #DEDFFE",
"P c #DEDEFF",
"I c #FFFFFD",
"U c #FEFFFF",
/* pixels */
"llllllllllllllllllllllllllllllllllllllll",
"llllllllllllllllllllllllllllllllllllllll",
"llllllllllllllllllllllllllllllllllllllll",
"llllllllllllllllllllllllllllllllllllllll",
"llllllllllll::..  XXXXllllllllllllllllll",
"llllllllllll::..  XXXXllllllllllllllllll",
"llllllllll  ##PPFFXXrr....llllllllllllll",
"llllllllll  ##PPFFXXrr....llllllllllllll",
"llllllll  00  HHFF%%$$ffjj  llllllllllll",
"llllllll  00  HHFF%%$$ffjj  llllllllllll",
"llllllXXee00++KKDD  gghhddXXXX..llllllll",
"llllllXXee00++KKDD  gghhddXXXX..llllllll",
"llll##yyee..  PPSS  kkss..%%pp  llllllll",
"llll##yyee..  PPSS  kkss..%%pp  llllllll",
"llll  qquu..  LLZZOO&&XXXXaaoo++llllllll",
"llll  qquu..  LLZZOO&&XXXXaaoo++llllllll",
"llllll  wwXXOOLLAA..MM@@BB..%%$$--llllll",
"llllll  wwXXOOLLAA..MM@@BB..%%$$--llllll",
"llllllll  ..%%PPDD  VV  mmNN  UU  llllll",
"llllllll  ..%%PPDD  VV  mmNN  UU  llllll",
"llllllllll%%  JJGG&&nnmm88&&$$II%%llllll",
"llllllllll%%  JJGG&&nnmm88&&$$II%%llllll",
"llllllllll  %%FFCC==  99XX..XXcc  llllll",
"llllllllll  %%FFCC==  99XX..XXcc  llllll",
"llllllll  33%%    ++33%%..>>%%zz  llllll",
"llllllll  33%%    ++33%%..>>%%zz  llllll",
"llllllll    117766<<..eeXX,,XXbb  llllll",
"llllllll    117766<<..eeXX,,XXbb  llllll",
"llllllll%%tt&&  OO    ii  &&  xx..llllll",
"llllllll%%tt&&  OO    ii  &&  xx..llllll",
"llllllll  XX%%2244  ..qq..ll  vv**llllll",
"llllllll  XX%%2244  ..qq..ll  vv**llllll",
"llllllllll==  3355  XX  $$lloo;;  llllll",
"llllllllll==  3355  XX  $$lloo;;  llllll",
"llllllll%%%%  &&%%XX++==..XXllllllllllll",
"llllllll%%%%  &&%%XX++==..XXllllllllllll",
"llllllllllllllllllllllllllllllllllllllll",
"llllllllllllllllllllllllllllllllllllllll",
"llllllllllllllllllllllllllllllllllllllll",
"llllllllllllllllllllllllllllllllllllllll"
};
