/* XPM */
static char *right_2[] = {
/* columns rows colors chars-per-pixel */
"40 40 74 1 ",
"  c black",
". c #010000",
"X c #000100",
"o c #010101",
"O c #020100",
"+ c #000200",
"@ c #000201",
"# c #000002",
"$ c #010002",
"% c #010103",
"& c #030002",
"* c #020003",
"= c #000004",
"- c #010004",
"; c #634233",
": c #634432",
"> c #9B642E",
", c #9B6330",
"< c #9A6231",
"1 c #9B6332",
"2 c #9C6232",
"3 c #9A6533",
"4 c #9C6431",
"5 c #9C6433",
"6 c #9D6335",
"7 c #9C6435",
"8 c #008300",
"9 c #018300",
"0 c #008301",
"q c #038200",
"w c #008303",
"e c #008400",
"r c #018400",
"t c #008500",
"y c #018500",
"u c #008401",
"i c #028400",
"p c #008600",
"a c #008601",
"s c #008403",
"d c #00C600",
"f c #00C601",
"g c #01C702",
"h c #EEA508",
"j c #F0A305",
"k c #F4AD13",
"l c #F5AE18",
"z c #F6B014",
"x c #FFFF3F",
"c c #FDFE41",
"v c #FEFF42",
"b c #FFFF42",
"n c #FFFE43",
"m c #FFFF43",
"M c #000001",
"N c #A5A5A3",
"B c #A3A5A4",
"V c #A5A5A5",
"C c #A4A5A7",
"Z c gray65",
"A c #FFBC89",
"S c #FFBD89",
"D c #FFBE88",
"F c #FCBD8A",
"G c #FFBC8B",
"H c #FFBD8B",
"J c #FDBD8D",
"K c #FFBD8D",
"L c #FCBE8D",
"P c #FFBE8C",
"I c #FDBD8F",
"U c #FFBD8E",
"Y c #FFBE8E",
"T c #FEFEFE",
/* pixels */
"MMMMMMMMMMMMMMMMMMMMMMMMMMMMMMMMMMMMMMMM",
"MMMMMMMMMMMMMMMMMMMMMMMMMMMMMMMMMMMMMMMM",
"MMMMMMMMMMMMMMMMMMMMMMMMMMMMMMMMMMMMMMMM",
"MMMMMMMMMMMMMMMMMMMMMMMMMMMMMMMMMMMMMMMM",
"MMMMMMMMMMM            MMMMMMMMMMMMMMMMM",
"MMMMMMMMMMM            MMMMMMMMMMMMMMMMM",
"MMMMMMM  ..9900wwggff99##XXMMXXMMMMMMMMM",
"MMMMMMM  ..9900wwggff99##XXMMXXMMMMMMMMM",
"MMMMM..ssppeeddddrrppXXbbxx..--  MMMMMMM",
"MMMMM..ssppeeddddrrppXXbbxx..--  MMMMMMM",
"MMMMM  aaqquuoottyy$$mmvvkk  hh  MMMMMMM",
"MMMMM  aaqquuoottyy$$mmvvkk  hh  MMMMMMM",
"MMMMM$$rrtt%%JJ$$XXnncczz  jj  MMMMMMMMM",
"MMMMM$$rrtt%%JJ$$XXnncczz  jj  MMMMMMMMM",
"MMMMMMM==ii$$LL,,XXll@@&&##XXoo  MMMMMMM",
"MMMMMMM==ii$$LL,,XXll@@&&##XXoo  MMMMMMM",
"MMMMMMMXX00..DDUU    GG  SSooTT--MMMMMMM",
"MMMMMMMXX00..DDUU    GG  SSooTT--MMMMMMM",
"MMMMMMMMM  ooKKGG  YYFF  HH  ##XXMMMMMMM",
"MMMMMMMMM  ooKKGG  YYFF  HH  ##XXMMMMMMM",
"MMMMMMMMMMMXX33HHXXAAHHII55##VV  MMMMMMM",
"MMMMMMMMMMMXX33HHXXAAHHII55##VV  MMMMMMM",
"MMMMMMMMMMM##    ..##oo    ..BB  MMMMMMM",
"MMMMMMMMMMM##    ..##oo    ..BB  MMMMMMM",
"MMMMMMMMM  ..6622XXGGPPXX;;..NN..MMMMMMM",
"MMMMMMMMM  ..6622XXGGPPXX;;..NN..MMMMMMM",
"MMMMMMMXX77  ..11  YYSSXX::XXCC  MMMMMMM",
"MMMMMMMXX77  ..11  YYSSXX::XXCC  MMMMMMM",
"MMMMMMM**>>##eeXXXXXXoo##..XXZZXXMMMMMMM",
"MMMMMMM**>>##eeXXXXXXoo##..XXZZXXMMMMMMM",
"MMMMMMM##4422$$88  22<<,,11..  ..MMMMMMM",
"MMMMMMM##4422$$88  22<<,,11..  ..MMMMMMM",
"MMMMM  ##..  XX##$$XXOO++..XXMMMMMMMMMMM",
"MMMMM  ##..  XX##$$XXOO++..XXMMMMMMMMMMM",
"MMMMMMMMMMMMMMMMMMMMMMMMMMMMMMMMMMMMMMMM",
"MMMMMMMMMMMMMMMMMMMMMMMMMMMMMMMMMMMMMMMM",
"MMMMMMMMMMMMMMMMMMMMMMMMMMMMMMMMMMMMMMMM",
"MMMMMMMMMMMMMMMMMMMMMMMMMMMMMMMMMMMMMMMM",
"MMMMMMMMMMMMMMMMMMMMMMMMMMMMMMMMMMMMMMMM",
"MMMMMMMMMMMMMMMMMMMMMMMMMMMMMMMMMMMMMMMM"
};
