/* XPM */
static char *rupee[] = {
/* columns rows colors chars-per-pixel */
"50 50 40 1 ",
"  c black",
". c #0D2A0E",
"X c #0E2E0F",
"o c #184F19",
"O c #1C5D1D",
"+ c #1D5E1D",
"@ c #1D5F1D",
"# c #1E611E",
"$ c #1F651F",
"% c #237123",
"& c #257826",
"* c #2B8B2C",
"= c #2E932E",
"- c #2E972E",
"; c #2E972F",
": c #31A332",
"> c #32A533",
", c #32A633",
"< c #37B638",
"1 c #38B739",
"2 c #38B839",
"3 c #3DB93E",
"4 c #46BD47",
"5 c #5EC65F",
"6 c #60C761",
"7 c #000001",
"8 c #89C78A",
"9 c #8DD48E",
"0 c #99D799",
"q c #9BD89B",
"w c #9BD89C",
"e c #9DD99D",
"r c #C4CCC5",
"t c #C0E6C0",
"y c #CEE5CE",
"u c #CCE9CC",
"i c #D3EAD3",
"p c #E3F1E3",
"a c #E8F2E8",
"s c gray97",
/* pixels */
"77777777777777777777777777777777777777777777777777",
"77777777777777777777777777777777777777777777777777",
"77777777777777777777777777777777777777777777777777",
"77777777777777777777777777777777777777777777777777",
"77777777777777777777777777777777777777777777777777",
"77777777777777777777777777777777777777777777777777",
"77777777777777777777777777777777777777777777777777",
"77777777777777777777777777777777777777777777777777",
"7777777777777777777       777777777777777777777777",
"7777777777777777777       777777777777777777777777",
"77777777777777777    yyy    7777777777777777777777",
"77777777777777777    yyy    7777777777777777777777",
"777777777777777    ssiii22    77777777777777777777",
"777777777777777    ssiii22    77777777777777777777",
"7777777777777    uupp888;;>>    777777777777777777",
"7777777777777    uupp888;;>>    777777777777777777",
"7777777777777  99wwee:::++&&,,  777777777777777777",
"7777777777777  99wwee:::++&&,,  777777777777777777",
"7777777777777  ssqq22222OO..22  777777777777777777",
"7777777777777  ssqq22222OO..22  777777777777777777",
"7777777777777  ssqq22222OO..22  777777777777777777",
"7777777777777  ssqq22222OO..22  777777777777777777",
"7777777777777  aaww44222OO..22  777777777777777777",
"7777777777777  aaww44222OO..22  777777777777777777",
"7777777777777  6600tt333@@XX11  777777777777777777",
"7777777777777  6600tt333@@XX11  777777777777777777",
"7777777777777  <<2255rrr$$==--  777777777777777777",
"7777777777777  <<2255rrr$$==--  777777777777777777",
"7777777777777    **2222222>>    777777777777777777",
"7777777777777    **2222222>>    777777777777777777",
"777777777777777    oo222%%    77777777777777777777",
"777777777777777    oo222%%    77777777777777777777",
"77777777777777777    ###    7777777777777777777777",
"77777777777777777    ###    7777777777777777777777",
"7777777777777777777       777777777777777777777777",
"7777777777777777777       777777777777777777777777",
"77777777777777777777777777777777777777777777777777",
"77777777777777777777777777777777777777777777777777",
"77777777777777777777777777777777777777777777777777",
"77777777777777777777777777777777777777777777777777",
"77777777777777777777777777777777777777777777777777",
"77777777777777777777777777777777777777777777777777",
"77777777777777777777777777777777777777777777777777",
"77777777777777777777777777777777777777777777777777",
"77777777777777777777777777777777777777777777777777",
"77777777777777777777777777777777777777777777777777",
"77777777777777777777777777777777777777777777777777",
"77777777777777777777777777777777777777777777777777",
"77777777777777777777777777777777777777777777777777",
"77777777777777777777777777777777777777777777777777"
};
