/* XPM */
static char *sword[] = {
/* columns rows colors chars-per-pixel */
"50 50 141 2 ",
"   c #010101",
".  c #0B0000",
"X  c #010900",
"o  c #02010B",
"O  c #0A0309",
"+  c #120002",
"@  c #011404",
"#  c #000115",
"$  c #000019",
"%  c #161614",
"&  c #151F17",
"*  c #1F1E19",
"=  c #221C1E",
"-  c #0F2F1A",
";  c #132916",
":  c #182418",
">  c #162D1A",
",  c #1B2A1D",
"<  c #1C311E",
"1  c #21271B",
"2  c #212B1F",
"3  c #241F25",
"4  c #281D25",
"5  c #1F2120",
"6  c #1C2C21",
"7  c #1F3123",
"8  c #1B3F23",
"9  c #242526",
"0  c #2A2525",
"q  c #242923",
"w  c #292826",
"e  c #242629",
"r  c #29242A",
"t  c #242B29",
"y  c #2D292B",
"u  c #322A2F",
"i  c #213226",
"p  c #23332A",
"a  c #273E2C",
"s  c #322C30",
"d  c #2B4230",
"f  c #880015",
"g  c #ED1C24",
"h  c #68956E",
"j  c #668F72",
"k  c #6D8F74",
"l  c #738C75",
"z  c #768679",
"x  c #738D79",
"c  c #7A8C7E",
"v  c #679373",
"b  c #6C9575",
"n  c #679976",
"m  c #6B9975",
"M  c #6E9578",
"N  c #6D997A",
"B  c #719476",
"V  c #719976",
"C  c #72937A",
"Z  c #79927C",
"A  c #719C7C",
"S  c #6CA07A",
"D  c #71A07C",
"F  c #AC863B",
"G  c #9F894D",
"H  c #AC8246",
"J  c #AE8C45",
"K  c #B9924F",
"L  c #A28654",
"P  c #CA9954",
"I  c #C39758",
"U  c #C99C58",
"Y  c #000001",
"T  c #7A8F80",
"R  c #6E9880",
"E  c #739481",
"W  c #7B9280",
"Q  c #729D80",
"!  c #7B9D83",
"~  c #819E88",
"^  c #94B89E",
"/  c #B08BAD",
"(  c #A49BB5",
")  c #A896BC",
"_  c #AD9CBE",
"`  c #B598B6",
"'  c #A5BAA7",
"]  c #86C090",
"[  c #8FCD9E",
"{  c #95C59B",
"}  c #92CA9D",
"|  c #98D29F",
" . c #95CDA2",
".. c #9BCDA5",
"X. c #9CCEA8",
"o. c #94D4A4",
"O. c #9BD1A5",
"+. c #97D0AD",
"@. c #9CD3AA",
"#. c #9DD8A8",
"$. c #9FCDB0",
"%. c #A0CFA3",
"&. c #A3C7AB",
"*. c #A1CDAB",
"=. c #A1D1AA",
"-. c #A0DBAD",
";. c #A6C6B0",
":. c #ABCCB2",
">. c #A5D1B0",
",. c #A3DAB2",
"<. c #ADF3BD",
"1. c #AC93C2",
"2. c #B294C8",
"3. c #B8EFC5",
"4. c #B6F7C5",
"5. c #BAF6C3",
"6. c #B3F9C5",
"7. c #B5F7C9",
"8. c #BCF6CB",
"9. c #B6F8C8",
"0. c #BEFDCE",
"q. c #BDFFD1",
"w. c #ECC8CC",
"e. c #F2C9C7",
"r. c #F2C5C8",
"t. c #F2C8CC",
"y. c #F4D5DA",
"u. c #FDD4D9",
"i. c #FFD9DA",
"p. c #C1FECE",
"a. c #C4F4D2",
"s. c #C1FFD1",
"d. c #CAFCD5",
"f. c #CEF4DB",
"g. c #CCFDDA",
"h. c #D1FAD6",
"j. c #D5FFDC",
"k. c #DBFEDE",
"l. c #DBFEE1",
"z. c #E1FEE2",
"x. c #FEFEFF",
/* pixels */
"Y Y Y Y Y Y Y Y Y Y Y Y Y Y Y Y Y Y Y Y Y Y Y X       Y Y Y Y Y Y Y Y Y Y Y Y Y Y Y Y Y Y Y Y Y Y Y ",
"Y Y Y Y Y Y Y Y Y Y Y Y Y Y Y Y Y Y Y Y Y Y X f g g g   Y Y Y Y Y Y Y Y Y Y Y Y Y Y Y Y Y Y Y Y Y Y ",
"Y Y Y Y Y Y Y Y Y Y Y Y Y Y Y Y Y Y Y Y Y Y   f g x.g   Y Y Y Y Y Y Y Y Y Y Y Y Y Y Y Y Y Y Y Y Y Y ",
"Y Y Y Y Y Y Y Y Y Y Y Y Y Y Y Y Y Y Y Y Y Y   f g x.g   Y Y Y Y Y Y Y Y Y Y Y Y Y Y Y Y Y Y Y Y Y Y ",
"Y Y Y Y Y Y Y Y Y Y Y Y Y Y Y Y Y Y Y Y Y Y o f g x.g   Y Y Y Y Y Y Y Y Y Y Y Y Y Y Y Y Y Y Y Y Y Y ",
"Y Y Y Y Y Y Y Y Y Y Y Y Y Y Y Y Y Y Y Y Y Y   f g x.g   Y Y Y Y Y Y Y Y Y Y Y Y Y Y Y Y Y Y Y Y Y Y ",
"Y Y Y Y Y Y Y Y Y Y Y Y Y Y Y Y Y Y Y     X   f g x.g     o @ Y Y Y Y Y Y Y Y Y Y Y Y Y Y Y Y Y Y Y ",
"Y Y Y Y Y Y Y Y Y Y Y Y Y Y Y Y Y Y X f f   f f g g g g   f f X Y Y Y Y Y Y Y Y Y Y Y Y Y Y Y Y Y Y ",
"Y Y Y 6 6 6 t 6 6 6 q 5 , u ; Y Y Y o f f   . f f g g o   f f   Y Y Y 4 t 1 6 6 , 6 q t q 9 Y Y Y Y ",
"Y Y r ..s.p. .@.X.O.O.O...t q #.Y Y   f f   U   .     L   f f X Y ....e &.O.O.O.....o.o.0.o.6 r Y Y ",
"Y Y q C *. .0.[ O.O.O.O.O.w 2 O.O. .  f f   J I P x.K L   f f   O.,...r &...X.O.X.| p.p.+.V p e Y Y ",
"Y Y e M B b | q.q.s.s.s.s.q q m m b . f f   O   H F . X   f f   Q b N = h.s.s.s.s.s.O.X.N j 6 9 Y Y ",
"Y Y e B C b O.0.q.s.s.s.0.t 2 b b b   f f   O   H F . X   f f   A b N = h.s.s.s.s.d.o.X.N v 6 e Y Y ",
"Y Y 9 C M b O.l.l.l.l.l.k.w q j =.X.  $   $.  + . + X X *.$ #   ..m C w z.l.l.l.l.l.O.*.n M 6 e Y Y ",
"Y Y e M C M ..l.l.j.j.j.h.9 2 B ..#.,.    X.  + . + O X #.X @ O...v b r l.l.j.j.j.z.O.*.b M 6 9 Y Y ",
"Y Y e C C M O.l.j.9.4.5.4.t 9 v O.=.=.=.=.X.. u.i.i.  X @.=.%.@.=.M b r f.q.s.s.s.z.O.=.N M 6 e Y Y ",
"Y Y 9 C M M O.l.j.7.4.7.5.9 9 B b m M b b b   y.y.x.    m b B M b B B r d.q.s.p.s.z.X.=.M M 6 9 Y Y ",
"Y Y e C M M O.l.j.6.4.4.6.9 q b =.X...O...:.  x.x.x.  X O.O.O.O.X.j V e g.q.s.0.s.z.X.=.M M 6 9 Y Y ",
"Y Y e C C M O.l.j.5.X   X       X...O.O.X.*.  x.x.)   X O.O.O.....v b 9 f.q.q.p.s.z.O.=.M M 6 e Y Y ",
"Y Y e M M M O.l.l.q.d.f.        X X   X &.*.  ( ) 2.o   m b b m m b C z a.p.q.p.d.z.O.*.m M 6 9 Y Y ",
"Y Y e M M M X.l.l.q.p.g.X X @           ' :.  ` / ( o X m b m n m n S m 8.s.s.0.d.k.O.=.b M 6 e Y Y ",
"Y Y e k M M ..l.l.q.s.q.p.O.:.X X o           e.w.x.  X q.p.p.0.s.q.0.O.s.q.s.p.d.z.O.*.M M 6 9 Y Y ",
"Y Y e C C M O.l.l.q.q.p.0.o.^ s.0.X   X       t.t.x.  X s.p.0.s.q.0.p...p.q.s.s.p.z...@.M M 6 9 Y Y ",
"Y Y 9 C M M O.l.j.q.s.s.0. .o.q.p.<.s.0.@     _ 1.1.o X s.p.q.s.s.0.s...p.s.q.p.d.k.O.*.M M 6 9 Y Y ",
"Y Y e M C b ..l.j.q.q.p.q.X.@.p.s.s.s.p.5.g.      o   X 0.s.s.q.s.q.s.O.p.q.s.s.s.z.O.=.N M 6 9 Y Y ",
"Y Y 9 C M M O.l.l.q.s.q.8.#.-.q.g.s.s.p.q.s.p.q.s.0.p.s.s.s.s.p.0.q.g.O.4.q.q.p.d.z.X.*.b M 6 e Y Y ",
"Y Y e B M M O.l.l.q.s.s.0.s.s.@.s.q.p.s.s.p.s.p.s.p.p.s.s.s.s.p.p.O...q.p.s.s.p.d.l.O.@.M M 6 9 Y Y ",
"Y Y e M M M O.l.k.q.p.p.0.s.9.s. .@.O.O.O.X.O.O.O.X.O.O.O.O.O.O.X.q.q.p.s.q.s.0.d.l...@.b M 6 e Y Y ",
"Y Y e B M M X.l.l.q.q.q.s.s.s.s.s.0.0.0.0.0.0.0.0.0.0.0.p.0.0.0.0.8.q.s.s.q.s.q.d.z...*.M M 6 9 Y Y ",
"Y Y e M C M X.s.a.l.p.q.q.0.s.s.s.s.s.q.s.p.s.s.s.s.s.s.s.p.s.s.s.p.s.p.s.s.q.l.j.s.O.*.M M 6 9 Y Y ",
"Y Y e M M b b  .O.a.j.g.p.s.p.q.p.q.p.s.s.s.q.s.0.s.q.p.p.p.s.q.s.s.s.s.q.s.g.g.8.O.N A b M 6 9 Y Y ",
"Y Y 9 x M M M &. .s.l.j.d.d.d.d.d.d.d.d.d.d.d.d.d.d.d.d.d.d.d.d.d.d.d.d.d.d.l.s.a.>.V C M M 6 9 Y Y ",
"Y Y e C M M M M C ..s.a.l.k.k.k.l.l.l.l.l.l.l.l.l.l.l.l.l.l.k.l.l.l.l.l.k.j.p...>.B M M M M , 9 Y Y ",
"Y Y 9 M M M M M M C >.....X.O.O.X.O.X.O.X.X.O.O.X.X.X.X.X.O.X.O.X.X.X.X.O...O.h M B B M M M 6 9 Y Y ",
"Y Y 9 C M B M M M M ....C 6 q q t 9 q q 9 t q q t w q q t w q t 9 t q q Z N O.N C M M M M M 6 9 Y Y ",
"Y Y 9 C M M M k M M ....B e 5 Z C E Z Z Z E C E Z E C Z Z E C Z C Z C y Z M X.m M M M M M M 6 e Y Y ",
"Y Y 9 M M M M M M k ..X.b 9 q V , x B M < q , l B V 6 q , V b C , B C r x C X.m C B M M b M 6 e Y Y ",
"Y Y q C M C M M M M ....B t q ! : E C B , , q l C ~ i q & l B x p Z M 0 Z M O.m M M M M M b 6 9 Y Y ",
"Y Y q M B M M M M M ....B 9 2 ! : Z C C > 6 q l C ~ p 2 & B B x p Z M 0 C A X.b C M M M M m 6 9 Y Y ",
"Y Y e B k M M M M M ..X.B 9 q C O.> q r :.X.O.6 q e *.O.O.q 9 e %.h M r x C X.m C M M M B b i q Y Y ",
"Y Y Y % z M M M M M ....k 9 q N l { O.| D b C  .O.@.A M j } O.[ ! E C 9 Z M X.N M M b M M w Y Y Y Y ",
"Y Y Y Y : 9 M M M M ....x 9 q C 9 0 0 m , w w C b M 1 0 q M Z y * W M 0 Z M O.b C M n Z t Y Y Y Y Y ",
"Y Y Y Y Y Y - x R M .. .v i a m =.*.@.q ^ ..X.i 2 q ......5 d X...N ! , l m ..b ~ z 6 8 Y Y Y Y Y Y ",
"Y Y Y Y Y Y Y ; 9 l X...| m B m M m m b m V M m m m N M N b m M N m m n O.....M c w Y Y Y Y Y Y Y Y ",
"Y Y Y Y Y Y Y Y Y 6 W M O.0.0.0.p.p.0.0.0.0.0.0.0.0.0.0.0.p.0.0.0.p.0.q. .X.B 9 ; Y Y Y Y Y Y Y Y Y ",
"Y Y Y Y Y Y Y Y Y Y ; u 3 r r r r r r r r r r r r r r w 4 r r r r r r r 0 9 u Y Y Y Y Y Y Y Y Y Y Y ",
"Y Y Y Y Y Y Y Y Y Y Y Y Y Y Y Y Y Y Y Y Y Y Y Y Y Y Y Y Y Y Y Y Y Y Y Y Y Y Y Y Y Y Y Y Y Y Y Y Y Y ",
"Y Y Y Y Y Y Y Y Y Y Y Y Y Y Y Y Y Y Y Y Y Y Y Y Y Y Y Y Y Y Y Y Y Y Y Y Y Y Y Y Y Y Y Y Y Y Y Y Y Y ",
"Y Y Y Y Y Y Y Y Y Y Y Y Y Y Y Y Y Y Y Y Y Y Y Y Y Y Y Y Y Y Y Y Y Y Y Y Y Y Y Y Y Y Y Y Y Y Y Y Y Y ",
"Y Y Y Y Y Y Y Y Y Y Y Y Y Y Y Y Y Y Y Y Y Y Y Y Y Y Y Y Y Y Y Y Y Y Y Y Y Y Y Y Y Y Y Y Y Y Y Y Y Y "
};
