/* XPM */
static char *triforce[] = {
/* columns rows colors chars-per-pixel */
"50 50 8 1 ",
"  c black",
". c #FF7F27",
"X c #FFC90E",
"o c #FFF200",
"O c #FFF86C",
"+ c #000001",
"@ c #FEFFEC",
"# c white",
/* pixels */
"++++++++++++++++++++++++++++++++++++++++++++++++++",
"++++++++++++++++++++++++++++++++++++++++++++++++++",
"++++++++++++++++++++++++++++++++++++++++++++++++++",
"++++++++++++++++++++++++++++++++++++++++++++++++++",
"++++++++++++++++++++++++++++++++++++++++++++++++++",
"++++++++++++++++++++++++++++++++++++++++++++++++++",
"++++++++++++++++++++++++++++++++++++++++++++++++++",
"+++++++++++++++++++++++  +++++++++++++++++++++++++",
"+++++++++++++++++++++++  +++++++++++++++++++++++++",
"+++++++++++++++++++++      +++++++++++++++++++++++",
"+++++++++++++++++++++      +++++++++++++++++++++++",
"+++++++++++++++++++++  XX  +++++++++++++++++++++++",
"+++++++++++++++++++++  XX  +++++++++++++++++++++++",
"+++++++++++++++++++  ##XXXX  +++++++++++++++++++++",
"+++++++++++++++++++  ##XXXX  +++++++++++++++++++++",
"+++++++++++++++++++  @@ooXX  +++++++++++++++++++++",
"+++++++++++++++++++  @@ooXX  +++++++++++++++++++++",
"+++++++++++++++++  @@@@ooXXXX  +++++++++++++++++++",
"+++++++++++++++++  @@@@ooXXXX  +++++++++++++++++++",
"+++++++++++++++++  @@ooooooXX  +++++++++++++++++++",
"+++++++++++++++++  @@ooooooXX  +++++++++++++++++++",
"++++++++++++++   @@@@ooooooXXXX   ++++++++++++++++",
"++++++++++++++   @@@@ooooooXXXX   ++++++++++++++++",
"++++++++++++++   @@@@ooooooXXXX   ++++++++++++++++",
"++++++++++++  @@@OOooooooooooXXXXX  ++++++++++++++",
"++++++++++++  @@@OOooooooooooXXXXX  ++++++++++++++",
"++++++++++++  @@@ooooooooooooooXXX  ++++++++++++++",
"++++++++++++  @@@ooooooooooooooXXX  ++++++++++++++",
"++++++++++  @@OOOooooooooooooooXXXXX  ++++++++++++",
"++++++++++  @@OOOooooooooooooooXXXXX  ++++++++++++",
"++++++++++  @@ooooooooooooooooooooXX  ++++++++++++",
"++++++++++  @@ooooooooooooooooooooXX  ++++++++++++",
"++++++++  @@@@ooooooooooooooooooooXXXX  ++++++++++",
"++++++++  @@@@ooooooooooooooooooooXXXX  ++++++++++",
"++++++++  ............................  ++++++++++",
"++++++++  ............................  ++++++++++",
"++++++                                    ++++++++",
"++++++                                    ++++++++",
"++++++++++++++++++++++++++++++++++++++++++++++++++",
"++++++++++++++++++++++++++++++++++++++++++++++++++",
"++++++++++++++++++++++++++++++++++++++++++++++++++",
"++++++++++++++++++++++++++++++++++++++++++++++++++",
"++++++++++++++++++++++++++++++++++++++++++++++++++",
"++++++++++++++++++++++++++++++++++++++++++++++++++",
"++++++++++++++++++++++++++++++++++++++++++++++++++",
"++++++++++++++++++++++++++++++++++++++++++++++++++",
"++++++++++++++++++++++++++++++++++++++++++++++++++",
"++++++++++++++++++++++++++++++++++++++++++++++++++",
"++++++++++++++++++++++++++++++++++++++++++++++++++",
"++++++++++++++++++++++++++++++++++++++++++++++++++"
};
