/* XPM */
static char *wall[] = {
/* columns rows colors chars-per-pixel */
"50 50 13 1 ",
"  c #331F29",
". c #563A3F",
"X c #2B5E37",
"o c #307B37",
"O c #79584F",
"+ c #94785C",
"@ c #29973B",
"# c #4D8E3D",
"$ c #2ECA35",
"% c #328E41",
"& c #3ABE41",
"* c #6ADD4B",
"= c #BC9A78",
/* pixels */
"&&&&&&&&&&&&&&&&&&&&&&&&&&&&&&&&&&&&&&&&&&&&&&&&&&",
"&&&&&&&&&&&&&&&&&&&&&&&&&&&&&&&&&&&&&&&&&&&&&&&&&&",
"&&&&&&&&&&&&&&*&&&&&&&&&&&&&&&&&&&&&&&&&&*&&&&&&&&",
"&*&&&&&&&&&&*&**&*&&&&&&&&&&&&&&&&&&&&&&&*&&&&&&&&",
"**&&&&*&&&&&******&&&&*&&&&&&&&*&&*&&&&&&@&&&&&*&&",
"*@&&*&**&*&&@*@**@OOOOOOO*&&&&&*OOO&&&&&&&&&&&&*&*",
"@&&&******&&&@@@@&OOOOOOO*&&&&&*OOO&&&&&&&&&&&&*&*",
"&&&&@**@*@&&OOOOOO+++++++OOO&OOO+++OO&&&&&&&&&&@&@",
"&&&&&@@@@&&O++++++++++++++++OO+++++++O&&&&&&&&&&&&",
"&&&&&&&&&OO+++OOOO++++++++++++OO++++++O&&&&&&&&&&&",
"&*&&&&&&&OO+++OOOO++++++++++++OO++++++O&&&&&&*&&&&",
"&**&*&&&O+++OOOO++++++++++++++++O===++=...&&&&&&&&",
"*****&*&O++++++++++++++++++++++++OOO==O...&&&&&&&&",
"*@**@&&&O++++++++++++++++++++++++OOO==O...&&&&&&&&",
"@@@@&&&&O+++++++++++++++++++++OO+++O.OO....&&&&&&&",
"&&&&&&&&O+++++++++++++++++++++OO+++O.OO....&&&&&&&",
"&&&&&&&O++++++++++++++++++++++++O+++O......&&&&&&&",
"&&&&&&&O++++++++++++++++++++++++O+++O......&&&&&&&",
"&&&&&&&O+++++++++++===O++++++++++++OOO ...$oo&&&&&",
"&&&&&&&O=+++++++++=OOO++++++++++++++++O$$$ oo&&&&&",
"&&&&&&&OO==+++++OOOOOO++++++++++++++++O%%%ooooo&&&",
"&&&&&&&OO==+++++OOOOOO++++++++++++++++O%%%ooooo&&&",
"&&&&&...OOO=====+++OOO==+++++++++++++++OOOooooo&&&",
"&&&&&...OOO=====+++OOO==+++++++++++++++OOOooooo&&&",
"&&&*&....OOOOOOO==++++OO==+++++++++++++OOOooo&&&&&",
"&*&*&  .....OOOOOO====++OO==++++++++++++++O&&&&&&&",
"&*&@&  $$.....OOOOOOOOOO++OO+++++++++++===O&&&&&&*",
"&@&&&%% ...........OOOOOOOOOO======++++===Ooo&&*&*",
"&&&&&%% ...........OOOOOOOOOO======++++===Ooo&&***",
"&&&&&%% ...........OOOOOOOOOO======++++===Ooo&&@*@",
"&&&&%         .........OOOOOOOOOOOO====OOOOOO&&&@@",
"&&&&%&&  .........OOOOOOOOOO..OOOOOOOOOOOOO..oo&&&",
"&&&%...    $.......OOOOOOOOOOO.....OOOOOOO...oo&&&",
"&&& OOO.o  %      .$$$.$.OOOOOOOOOOOOO.$$$.$$oo&&&",
"&&& OOO.o  %      .$$$.$.OOOOOOOOOOOOO.$$$.$$oo&&&",
"&*& ... o##ooo     %%%.O$OOOO...$OOOOOO...%  oo*&*",
"**& ... o##ooo     %%%.O$OOOO...$OOOOOO...%  oo***",
"*@&&$  #o.....##oo %%%  %OOOOO$$.....$.   %oooo@*@",
"@&&&&&&#*  .OO..oo#ooooo%...$.%%     % oooooo@@@@&",
"&&&&&&&%*%%     &@Xooooooooo%o%%ooooooooooooo&&&&&",
"&&&&&*&%*%%     &&Xooooooooo%o%%ooooooooooooo&&&&&",
"&&&&*@&&%%%%%%&&&&&ooooooooooooooooooooooo&&&&&&&&",
"&&*&*&&&%%%%%%&&&&&ooooooooooooooooooooooo&&&&&&&&",
"&&@&@&&&&&&&&&&&&&&&&&&&oooooo&&&@&&&&&&&&&&&&&&&&",
"&&&&&&&*&&&&&&&&&&&*&&*&oooooo&&&&&&&&&&&&&&&&&&&&",
"&&&&&&&&&&&&&&&&&&&@*&*&&&&&&&&&&&&&&&&&&&&&&&&&&&",
"*&&&&&&&&&&&&&&&&&&&*&*&&&&&&&&&&&&&&&&&&&&&&&&&*&",
"&&&&&&&&&&&&&&&&&&&&@&@&&&&&&&&&&&&&&&&&&&&&&&&&&&",
"&&&&&&&&&&&&&&&&&&&&&&&&&&&&&&&&&&&&&&&&&&&&&&&&&&",
"&&&&&&&&&&&&&&&&&&&&&&&&&&&&&&&&&&&&&&&&&&&&&&&&&&"
};
