/* XPM */
static char *zelda[] = {
/* columns rows colors chars-per-pixel */
"50 50 12 1 ",
"  c black",
". c #D55A5C",
"X c #29973B",
"o c #3ABE41",
"O c #6ADD4B",
"+ c #FFC90E",
"@ c #FFF200",
"# c #F1A069",
"$ c #576DD2",
"% c #AC91F2",
"& c #FADBC7",
"* c white",
/* pixels */
"oooooooooooooooooooooooooooooooooooooooooooooooooo",
"oooooooooooooooooo    oo      oooooooooooooooooooo",
"ooooooooooooooOooo    oo      oooooooooooOoooooooo",
"oOooooooooooOoOO  ++@@  ++@@++  oooooooooOoooooooo",
"OOooooOoooooOOOO  ++@@  ++@@++  ooOooooooXoooooOoo",
"OXooOoOOoOooXO  ****++    ++****  XooooooooooooOoO",
"XoooOOOOOOoooX  ****++    ++****  oooooooooooooOoO",
"ooooXOOXOXoooo    ************    oooooooooooooXoX",
"oooooXXXXooooo    ************    oooooooooooooooo",
"oooooooooooo    ++  **$$$$**  ++    oooooooooooooo",
"oOoooooooOoo    ++  **$$$$**  ++    oooooooooOoooo",
"oOOoOoooOX  &&  ++++  ****  ++++  &&  oooooooooooo",
"OOOOOoOoOo  &&  ++++  ****  ++++  &&  Oooooooooooo",
"OXOOXoooXo  &&  ++            ++  &&  Oooooooooooo",
"XXXXoooooo  &&  ++            ++  &&  Oooooooooooo",
"oooooooooo  ##&&  ****####****  &&##  Xooooooooooo",
"oooooooooo  ##&&  ****####****  &&##  oooooooooooo",
"oooooooooo    ##  **  &&&&  **  ##    oooooooooooo",
"oooooooooo    ##  **  &&&&  **  ##    oooOoooooooo",
"oooooooooo  ++    **  &&&&  **    ++  oooOoooooooo",
"oooooooooo  ++    **  &&&&  **    ++  oooXoooooooo",
"oooooooo    ++++  ##&&&&&&&&##  ++++    oooooOoooo",
"oooooooo    ++++  ##&&&&&&&&##  ++++    ooooOXoooo",
"oooooooo  **    %%    ####    %%    **  ooooOooooo",
"oooOoooo  **    %%    ####    %%    **  ooooXooooo",
"oOoOoooooo  ##  **  %%    %%  **  ##  oooooooooooo",
"oOoXoooooO  ##  **  %%    %%  **  ##  oooooooooooO",
"oXoooooooo  &&##  %%**%%%%**%%  ##&&  oooooooooOoO",
"oooooooooo  &&##  %%**%%%%**%%  ##&&  OooooooooOOO",
"oooooooooo  &&##  ..%%****%%..  ##&&  OooooooooXOX",
"oooooooooo  &&##  ..%%****%%..  ##&&  OoooooooooXX",
"oooooooooo  &&&&    ........    &&&&  Xooooooooooo",
"oooooooooo  &&&&    ........    &&&&  oooooooooooo",
"oooooooooo      ****  ****  ****      oooooooooooo",
"ooooooooOo      ****  ****  ****      ooooooooOooo",
"oOooooooOo  %%%%%%%%**    %%%%%%%%%%  ooooooOoOOoO",
"OOooooooXo  %%%%%%%%**    %%%%%%%%%%  ooooooOOOOOO",
"OXooOooooooo      %%******%%%%        ooooooXOOXOX",
"Xooooooooooo      %%******%%%%        oooooooXXXXo",
"oooooooooooo        %%%%%%%%          oooooooooooo",
"oooooOoooooo        %%%%%%%%          oooooooooooo",
"ooooOXoooooo                        oooooooooooooo",
"ooOoOooooooo                        oooooOoooooooo",
"ooXoXooooooooo                    oooooooooooooooo",
"oooooooOoooooo                    oooooooooooooooo",
"oooooooooooooooo                oooooooooooooooooo",
"Oooooooooooooooo                ooooooooooooooooOo",
"oooooooooooooooooo            oooooooooooooooooooo",
"oooooooooooooooooo            oooooooooooooooooooo",
"oooooooooooooooooooooooooooooooooooooooooooooooooo"
};
